<svg>

  <symbol id="icon-heart" width="25" height="25" viewBox="0 0 26 25" xmlns="http://www.w3.org/2000/svg">
    <g clip-path="url(#clip0)">
    <path d="M12.5 24.1789C12.7353 24.1789 12.96 24.0809 13.12 23.9084L23.1116 13.1394C23.1142 13.1366 23.1168 13.1339 23.1193 13.1311C24.3321 11.7882 25 10.0086 25 8.11994C25 6.23124 24.3321 4.45167 23.1193 3.10886L22.9674 2.94079C21.7329 1.57395 20.0845 0.821152 18.3259 0.821152C16.5673 0.821152 14.9189 1.57395 13.6843 2.94085L12.5 4.25213L11.3157 2.94092C10.0812 1.57402 8.43279 0.821219 6.67413 0.821219C4.91547 0.821219 3.26711 1.57402 2.03248 2.94099L1.88086 3.10865C0.667818 4.4518 -7.05719e-05 6.23137 -7.05719e-05 8.12001C-7.05719e-05 10.0086 0.667885 11.7883 1.88065 13.1311C1.88315 13.134 1.88573 13.1368 1.8883 13.1395L11.8799 23.9086C12.04 24.0808 12.2647 24.1789 12.5 24.1789ZM21.8676 11.9932L12.5 22.0896L3.13239 11.9931C1.20505 9.85478 1.20627 6.37921 3.13611 4.24253L3.28761 4.07486C4.19759 3.06731 5.40027 2.51256 6.67413 2.51256C7.94807 2.51256 9.15075 3.06731 10.0605 4.07452L11.8723 6.08069C12.0326 6.25823 12.2607 6.35952 12.4999 6.35952C12.739 6.35952 12.9671 6.25823 13.1275 6.08069L14.9394 4.07466C15.8492 3.06738 17.0518 2.51262 18.3257 2.51262C19.5997 2.51262 20.8023 3.06731 21.7121 4.07459L21.8639 4.24266C23.7937 6.37935 23.795 9.85492 21.8676 11.9932Z" fill="inherit"/>
    </g>
    <defs>
    <clipPath id="clip0">
    <rect width="25" height="25" fill="white" transform="matrix(-1 0 0 1 25 0)"/>
    </clipPath>
    </defs>
  </symbol>

  <symbol id="icon-heart-active" width="25" height="24" viewBox="0 0 26 24" xmlns="http://www.w3.org/2000/svg">
    <path d="M12.5001 23.3578C12.7354 23.3578 12.9601 23.2597 13.1202 23.0873L23.1118 12.3183C23.1143 12.3155 23.1169 12.3127 23.1194 12.3099C24.3322 10.9671 25.0001 9.18743 25.0001 7.29879C25.0001 5.41008 24.3322 3.63052 23.1194 2.28771L22.9676 2.11963C21.733 0.752803 20.0846 0 18.3261 0C16.5675 0 14.919 0.752803 13.6844 2.1197L12.5001 3.43098L11.3158 2.11977C10.0813 0.75287 8.43291 6.76889e-05 6.67426 6.76889e-05C4.9156 6.76889e-05 3.26723 0.75287 2.03261 2.11984L1.88098 2.2875C0.667941 3.63065 5.14984e-05 5.41022 5.14984e-05 7.29886C5.14984e-05 9.18749 0.668006 10.9671 1.88077 12.3099C1.88328 12.3128 1.88585 12.3156 1.88842 12.3184L11.8801 23.0874C12.0402 23.2597 12.2648 23.3578 12.5001 23.3578Z" fill="inherit"/>
  </symbol>


  <symbol id="icon-search" width="23" height="22" viewBox="0 0 23 22" xmlns="http://www.w3.org/2000/svg">
    <path fill-rule="evenodd" clip-rule="evenodd" d="M14.8033 4.36827C17.7322 7.2972 17.7322 12.0459 14.8033 14.9749C11.8743 17.9038 7.1256 17.9038 4.19667 14.9749C1.26774 12.0459 1.26774 7.2972 4.19667 4.36827C7.1256 1.43934 11.8743 1.43934 14.8033 4.36827ZM17.1949 15.2452C19.8924 11.5306 19.5666 6.30313 16.2175 2.95405C12.5075 -0.755926 6.49244 -0.755926 2.78246 2.95405C-0.927525 6.66404 -0.927525 12.6791 2.78246 16.3891C6.37384 19.9805 12.1253 20.0953 15.8548 16.7335L20.8137 21.6924C21.2042 22.0829 21.8374 22.0829 22.2279 21.6924C22.6184 21.3019 22.6184 20.6687 22.2279 20.2782L17.1949 15.2452Z" fill="inherit"/>
  </symbol>

  <symbol id="icon-shopping-cart" width="23" height="23" viewBox="0 0 23 23" xmlns="http://www.w3.org/2000/svg">
    <g clip-path="url(#clip0)">
    <path d="M22.055 4.79789H4.07182L3.80451 1.81992C3.76079 1.33293 3.35264 0.959778 2.86372 0.959778H0.944571C0.422898 0.959778 0 1.38268 0 1.90435C0 2.42602 0.422898 2.84892 0.944571 2.84892H2.00015C2.57702 9.2757 1.08612 -7.33513 3.08654 14.9524C3.16364 15.8248 3.63498 16.7714 4.44695 17.4146C2.983 19.2841 4.3206 22.0402 6.70196 22.0402C8.67845 22.0402 10.0725 20.069 9.39471 18.2019H14.5645C13.8875 20.0666 15.2786 22.0402 17.2572 22.0402C18.8363 22.0402 20.1209 20.7556 20.1209 19.1765C20.1209 17.5975 18.8363 16.3128 17.2572 16.3128H6.70835C5.99083 16.3128 5.36557 15.8799 5.09569 15.2492L20.1912 14.362C20.6033 14.3378 20.952 14.0487 21.0522 13.6482L22.9714 5.97154C23.1202 5.37628 22.6696 4.79789 22.055 4.79789ZM6.70196 20.1511C6.16463 20.1511 5.72743 19.7139 5.72743 19.1765C5.72743 18.6391 6.16463 18.2019 6.70196 18.2019C7.23933 18.2019 7.67653 18.6391 7.67653 19.1765C7.67653 19.7139 7.23933 20.1511 6.70196 20.1511ZM17.2572 20.1511C16.7198 20.1511 16.2826 19.7139 16.2826 19.1765C16.2826 18.6391 16.7198 18.2019 17.2572 18.2019C17.7946 18.2019 18.2318 18.6391 18.2318 19.1765C18.2318 19.7139 17.7946 20.1511 17.2572 20.1511ZM19.3877 12.5169L4.84142 13.3717L4.2414 6.68699H20.8453L19.3877 12.5169Z" fill="inherit"/>
    </g>
    <defs>
    <clipPath id="clip0">
    <rect width="23" height="23" fill="white"/>
    </clipPath>
    </defs>
  </symbol>

  <symbol id="icon-star" width="20" height="20" viewBox="0 0 20 20" xmlns="http://www.w3.org/2000/svg">
    <path d="M7.26236 6.81677L9.74029 0.952929L12.2182 6.81775L12.3356 7.0955L12.636 7.12131L18.9798 7.66629L18.98 7.66631L18.98 7.66623L18.9806 7.66604L18.9804 7.66625L14.1684 11.8352L13.9405 12.0327L14.0088 12.3264L15.4506 18.5278L9.99901 15.24L9.74079 15.0843L9.48258 15.24L4.03105 18.5277L4.03095 18.5278L5.4728 12.3264L5.54109 12.0327L5.3132 11.8353L0.500202 7.66525L0.499957 7.66504L0.500585 7.66526L0.50059 7.66531L0.500718 7.6653L6.84459 7.12031L7.145 7.09451L7.26236 6.81677Z" fill="inherit" stroke="#555555"/>
  </symbol>

  <symbol id="icon-vk" width="23" height="23" viewBox="0 0 23 23"  xmlns="http://www.w3.org/2000/svg">
    <g clip-path="url(#clip0)">
    <path d="M22.8781 16.7905C22.8502 16.7305 22.8243 16.6807 22.8001 16.6408C22.4011 15.9221 21.6385 15.04 20.5129 13.9941L20.4891 13.9702L20.4772 13.9584L20.4652 13.9464H20.4531C19.9422 13.4594 19.6187 13.1319 19.4832 12.9643C19.2353 12.6449 19.1798 12.3217 19.3153 11.9941C19.411 11.7467 19.7705 11.2241 20.3931 10.4256C20.7205 10.0024 20.9798 9.66327 21.1714 9.40775C22.5526 7.57147 23.1514 6.39806 22.9677 5.88706L22.8964 5.76765C22.8484 5.69576 22.7247 5.62999 22.5253 5.57001C22.3255 5.51016 22.0701 5.50026 21.7587 5.54015L18.3099 5.56397C18.2541 5.54418 18.1743 5.54602 18.0704 5.57001C17.9665 5.59401 17.9146 5.60604 17.9146 5.60604L17.8546 5.63603L17.8069 5.67206C17.767 5.69589 17.7231 5.73779 17.6752 5.79768C17.6275 5.85737 17.5876 5.92741 17.5557 6.00723C17.1802 6.97323 16.7533 7.87136 16.2742 8.70159C15.9788 9.19665 15.7075 9.62569 15.4598 9.98896C15.2123 10.3521 15.0047 10.6197 14.8372 10.7912C14.6695 10.9628 14.518 11.1004 14.3821 11.2043C14.2463 11.3082 14.1426 11.3521 14.0709 11.3361C13.9989 11.32 13.9312 11.3041 13.8671 11.2881C13.7554 11.2162 13.6655 11.1185 13.5978 10.9947C13.5298 10.871 13.484 10.7153 13.46 10.5276C13.4362 10.3399 13.4221 10.1784 13.4181 10.0426C13.4143 9.90704 13.4161 9.71524 13.4242 9.46777C13.4325 9.22018 13.4362 9.05266 13.4362 8.96483C13.4362 8.66141 13.4421 8.33211 13.454 7.97685C13.4661 7.62159 13.4758 7.34011 13.484 7.13274C13.4921 6.92516 13.4959 6.70555 13.4959 6.47402C13.4959 6.24249 13.4818 6.06092 13.454 5.92913C13.4265 5.79751 13.3842 5.66976 13.3286 5.5459C13.2726 5.42216 13.1906 5.32645 13.0831 5.2585C12.9753 5.19064 12.8414 5.13678 12.6819 5.09677C12.2588 5.00101 11.7199 4.94921 11.0651 4.94116C9.58029 4.92522 8.62621 5.0211 8.20308 5.22868C8.03543 5.31638 7.88372 5.43621 7.74808 5.5878C7.60434 5.7635 7.58429 5.85938 7.68806 5.87515C8.16714 5.94692 8.50629 6.11859 8.7059 6.39001L8.77783 6.53383C8.83378 6.6376 8.88965 6.82131 8.94556 7.08472C9.00139 7.34812 9.03742 7.6395 9.05327 7.95869C9.09312 8.54158 9.09312 9.04054 9.05327 9.45561C9.0133 9.87085 8.97555 10.1941 8.93952 10.4256C8.90349 10.6572 8.84964 10.8448 8.77783 10.9884C8.7059 11.1321 8.65804 11.22 8.63405 11.2518C8.6101 11.2837 8.59014 11.3038 8.57428 11.3117C8.47051 11.3514 8.36259 11.3717 8.2509 11.3717C8.13903 11.3717 8.00339 11.3158 7.84375 11.2039C7.68416 11.0921 7.51852 10.9385 7.34685 10.7429C7.17517 10.5472 6.98156 10.2738 6.76593 9.92256C6.55047 9.57133 6.32691 9.15622 6.09538 8.67722L5.90383 8.32985C5.78408 8.10637 5.6205 7.78098 5.41292 7.35395C5.20522 6.92676 5.02163 6.51353 4.86204 6.11436C4.79824 5.94671 4.7024 5.81907 4.57468 5.73124L4.51475 5.69522C4.4749 5.66334 4.41094 5.62949 4.32319 5.59342C4.23532 5.55739 4.14363 5.53155 4.04775 5.51566L0.766558 5.53948C0.431262 5.53948 0.203761 5.61544 0.0839707 5.76715L0.0360294 5.83891C0.0120797 5.87888 0 5.94272 0 6.03059C0 6.11842 0.0239497 6.22622 0.071891 6.35385C0.550885 7.47961 1.07178 8.56532 1.63458 9.61113C2.19737 10.6569 2.68643 11.4994 3.10146 12.1377C3.51658 12.7764 3.9397 13.3793 4.37084 13.9459C4.80197 14.5128 5.08736 14.8761 5.22699 15.0357C5.36678 15.1956 5.47659 15.3151 5.55641 15.3949L5.85584 15.6823C6.04744 15.8739 6.3288 16.1034 6.70004 16.3708C7.07136 16.6384 7.48245 16.9018 7.93351 17.1614C8.38465 17.4207 8.90949 17.6323 9.50832 17.7959C10.1071 17.9597 10.6898 18.0254 11.2567 17.9937H12.6339C12.9132 17.9696 13.1248 17.8817 13.2686 17.7302L13.3162 17.6701C13.3483 17.6225 13.3783 17.5485 13.406 17.4488C13.434 17.3491 13.4479 17.2391 13.4479 17.1195C13.4397 16.7763 13.4658 16.467 13.5256 16.1916C13.5853 15.9163 13.6533 15.7087 13.7294 15.5689C13.8054 15.4292 13.8912 15.3114 13.9867 15.2158C14.0825 15.1201 14.1507 15.0621 14.1907 15.0421C14.2304 15.022 14.2622 15.0084 14.2861 15.0002C14.4777 14.9363 14.7032 14.9982 14.9629 15.186C15.2224 15.3736 15.4658 15.6052 15.6935 15.8805C15.921 16.1561 16.1944 16.4653 16.5137 16.8085C16.8332 17.1518 17.1125 17.4071 17.3519 17.575L17.5914 17.7187C17.7512 17.8145 17.9588 17.9024 18.2143 17.9822C18.4694 18.062 18.6929 18.0819 18.8848 18.042L21.9503 17.9942C22.2535 17.9942 22.4894 17.944 22.6568 17.8444C22.8245 17.7446 22.9241 17.6347 22.9562 17.5151C22.9883 17.3954 22.99 17.2596 22.9623 17.1078C22.9339 16.9563 22.9059 16.8504 22.8781 16.7905Z" fill="inherit"/>
    </g>
    <defs>
    <clipPath id="clip0">
    <rect width="23" height="23" fill="white"/>
    </clipPath>
    </defs>
  </symbol>

  <symbol id="icon-youtube" width="20" height="24" viewBox="0 0 20 24" xmlns="http://www.w3.org/2000/svg">
    <path d="M16.2122 17.0259H14.95L14.9558 16.2839C14.9558 15.9541 15.2234 15.6844 15.5503 15.6844H15.6308C15.9584 15.6844 16.2267 15.9541 16.2267 16.2839L16.2122 17.0259ZM11.4777 15.4359C11.1575 15.4359 10.8956 15.6536 10.8956 15.9203V19.5289C10.8956 19.795 11.1575 20.0122 11.4777 20.0122C11.7992 20.0122 12.0614 19.795 12.0614 19.5289V15.9203C12.0614 15.6534 11.7992 15.4359 11.4777 15.4359ZM19.1666 13.4173V20.2822C19.1666 21.9289 17.7557 23.2764 16.031 23.2764H3.13592C1.41066 23.2764 0 21.9289 0 20.2822V13.4173C0 11.7706 1.41066 10.4229 3.13592 10.4229H16.031C17.7557 10.4229 19.1666 11.7706 19.1666 13.4173ZM3.99611 21.0276L3.99509 13.7962L5.59359 13.7967V12.7252L1.33246 12.7187V13.7721L2.66263 13.776V21.0276H3.99611ZM8.78777 14.8733H7.45505V18.7349C7.45505 19.2935 7.48853 19.5728 7.45301 19.6714C7.34465 19.9709 6.85756 20.289 6.66769 19.7037C6.63549 19.6013 6.66385 19.2922 6.66334 18.7615L6.65797 14.8733H5.33267L5.33675 18.7005C5.33778 19.2871 5.32372 19.7244 5.34135 19.9235C5.37381 20.2745 5.36231 20.6836 5.68405 20.9174C6.28359 21.3545 7.43282 20.8523 7.72032 20.2274L7.71776 21.0248L8.78803 21.0261L8.78777 14.8733ZM13.0512 19.2953L13.0484 16.0814C13.0474 14.8565 12.1419 14.1231 10.913 15.1141L10.9183 12.7247L9.58715 12.7267L9.58076 20.9743L10.6756 20.9583L10.7752 20.4447C12.1739 21.7432 13.0532 20.8533 13.0512 19.2953ZM17.2221 18.8694L16.2229 18.8748C16.2224 18.9149 16.2208 18.9612 16.2203 19.0116V19.5759C16.2203 19.878 15.9737 20.124 15.6742 20.124H15.4785C15.1784 20.124 14.9318 19.878 14.9318 19.5759V19.5134V18.8927V18.0917H17.2201V17.2201C17.2201 16.5831 17.204 15.9464 17.1518 15.5822C16.988 14.4303 15.3903 14.2475 14.5832 14.8371C14.33 15.0213 14.1365 15.2677 14.0241 15.5988C13.9106 15.9301 13.8541 16.3827 13.8541 16.9576V18.874C13.8547 22.0598 17.6783 21.6095 17.2221 18.8694ZM12.0962 8.46536C12.1649 8.6345 12.2718 8.77157 12.4167 8.87502C12.5598 8.97692 12.7427 9.02813 12.962 9.02813C13.1542 9.02813 13.3244 8.97563 13.4726 8.86726C13.6203 8.75941 13.7448 8.59829 13.8465 8.38337L13.8212 8.91252H15.3067V2.51902H14.1373V7.49499C14.1373 7.76448 13.918 7.98509 13.65 7.98509C13.3834 7.98509 13.1634 7.76448 13.1634 7.49499V2.51902H11.9429V6.83136C11.9429 7.38068 11.9528 7.74689 11.9689 7.93259C11.9855 8.11699 12.0274 8.29389 12.0962 8.46536ZM7.59433 4.85442C7.59433 4.2407 7.64493 3.76146 7.74536 3.41594C7.84656 3.0717 8.02826 2.79497 8.29148 2.58626C8.55394 2.37652 8.88999 2.27151 9.29862 2.27151C9.64235 2.27151 9.93675 2.33979 10.1826 2.4735C10.4297 2.60799 10.6204 2.78256 10.7525 2.998C10.8872 3.21421 10.9786 3.43637 11.0275 3.6637C11.0773 3.89414 11.1018 4.24173 11.1018 4.71062V6.32755C11.1018 6.92058 11.0783 7.35688 11.0326 7.63387C10.9873 7.91164 10.8902 8.16923 10.7397 8.41079C10.5915 8.64976 10.4001 8.82847 10.168 8.94252C9.93342 9.05761 9.66509 9.11399 9.362 9.11399C9.02339 9.11399 8.73819 9.06666 8.50308 8.96787C8.2672 8.86959 8.08499 8.7214 7.95517 8.52458C7.82407 8.32751 7.73182 8.0875 7.67611 7.80767C7.62014 7.52809 7.59356 7.10757 7.59356 6.54713L7.59433 4.85442ZM8.75787 7.39413C8.75787 7.7562 9.02416 8.05181 9.34846 8.05181C9.67301 8.05181 9.93828 7.7562 9.93828 7.39413V3.9906C9.93828 3.62904 9.67301 3.33343 9.34846 3.33343C9.02416 3.33343 8.75787 3.62904 8.75787 3.9906V7.39413ZM4.6465 9.1127H6.04797L6.0495 4.20914L7.70549 0.00853467H6.17268L5.29229 3.1286L4.39938 0H2.8824L4.6442 4.21147L4.6465 9.1127Z" fill="inherit"/>
  </symbol>

  <symbol id="icon-facebook" width="11" height="20" viewBox="0 0 11 20" xmlns="http://www.w3.org/2000/svg">
    <path d="M9.88551 0.00400102L7.42165 0C4.65358 0 2.86473 1.85747 2.86473 4.7324V6.91436H0.387419C0.173351 6.91436 0 7.09 0 7.30666V10.4681C0 10.6847 0.173548 10.8602 0.387419 10.8602H2.86473V18.8374C2.86473 19.054 3.03808 19.2295 3.25215 19.2295H6.48433C6.6984 19.2295 6.87175 19.0538 6.87175 18.8374V10.8602H9.7683C9.98237 10.8602 10.1557 10.6847 10.1557 10.4681L10.1569 7.30666C10.1569 7.20263 10.116 7.10301 10.0434 7.02939C9.9709 6.95577 9.87207 6.91436 9.76929 6.91436H6.87175V5.06469C6.87175 4.17566 7.08107 3.72435 8.22534 3.72435L9.88512 3.72375C10.099 3.72375 10.2723 3.5481 10.2723 3.33165V0.396101C10.2723 0.179846 10.0992 0.00440112 9.88551 0.00400102Z" fill="inherit"/>
  </symbol>

  <symbol id="icon-list" width="18" height="16" viewBox="0 0 18 16" xmlns="http://www.w3.org/2000/svg">
    <rect width="18" height="2" rx="1" fill="inherit"/>
    <rect y="7" width="18" height="2" rx="1" fill="inherit"/>
    <rect y="14" width="18" height="2" rx="1" fill="inherit"/>
  </symbol>

  <symbol id="icon-tile" width="18" height="18" viewBox="0 0 18 18" xmlns="http://www.w3.org/2000/svg">
    <rect x="1" y="1" width="6" height="6" rx="1" stroke="inherit" stroke-width="2"/>
    <rect x="1" y="11" width="6" height="6" rx="1" stroke="inherit" stroke-width="2"/>
    <rect x="11" y="1" width="6" height="6" rx="1" stroke="inherit" stroke-width="2"/>
    <rect x="11" y="11" width="6" height="6" rx="1" stroke="inherit" stroke-width="2"/>
  </symbol>

  <symbol id="icon-headphones" width="19" height="19" viewBox="0 0 19 19" xmlns="http://www.w3.org/2000/svg">
    <path d="M19 9.58594C19 7.04827 18.0118 4.66107 16.2183 2.86762C14.4249 1.07417 12.0377 0.0859375 9.5 0.0859375C6.96233 0.0859375 4.57513 1.07417 2.78168 2.86762C0.988228 4.66107 0 7.04827 0 9.58594V14.0838C0 16.6255 2.06999 18.6955 4.61173 18.6955C4.91674 18.6955 5.16074 18.4515 5.16074 18.1465V10.0252C5.16074 9.72014 4.91674 9.47613 4.61173 9.47613C3.20462 9.47613 1.94392 10.1065 1.09803 11.1028V9.58594C1.09803 4.95387 4.86794 1.18397 9.5 1.18397C14.1321 1.18397 17.902 4.95387 17.902 9.58594C17.902 9.62254 17.906 9.65914 17.9142 9.69574C17.906 9.73234 17.902 9.76894 17.902 9.80554V11.3225C17.0561 10.3261 15.7954 9.69574 14.3883 9.69574C14.0833 9.69574 13.8393 9.93975 13.8393 10.2448V18.3661C13.8393 18.6711 14.0833 18.9151 14.3883 18.9151C16.93 18.9151 19 16.8451 19 14.3034V9.80554C19 9.76894 18.9959 9.73234 18.9878 9.69574C18.9959 9.65914 19 9.62254 19 9.58594ZM4.05865 10.6148V17.5528C2.38313 17.2884 1.09396 15.8325 1.09396 14.0838C1.09803 12.3351 2.38313 10.8792 4.05865 10.6148ZM14.9414 17.7724V10.8344C16.6169 11.0988 17.906 12.5547 17.906 14.3034C17.902 16.0562 16.6169 17.508 14.9414 17.7724Z" fill="inherit"/>
  </symbol>

  <symbol id="icon-speaker" width="19" height="20" viewBox="0 0 19 20" xmlns="http://www.w3.org/2000/svg">
    <path d="M14.751 0H4.24902C3.12361 0 2.20801 0.963789 2.20801 2.14844V17.8516C2.20801 19.0362 3.12361 20 4.24902 20H14.751C15.8764 20 16.792 19.0362 16.792 17.8516V2.14844C16.792 0.963789 15.8764 0 14.751 0ZM15.6787 17.8516C15.6787 18.39 15.2625 18.8281 14.751 18.8281H4.24902C3.73747 18.8281 3.32129 18.39 3.32129 17.8516V2.14844C3.32129 1.60996 3.73747 1.17188 4.24902 1.17188H14.751C15.2625 1.17188 15.6787 1.60996 15.6787 2.14844V17.8516Z" fill="inherit"/>
    <path d="M9.5 9.45312C7.35148 9.45312 5.60352 11.2931 5.60352 13.5547C5.60352 15.8163 7.35148 17.6563 9.5 17.6563C11.6485 17.6563 13.3965 15.8163 13.3965 13.5547C13.3965 11.2931 11.6485 9.45312 9.5 9.45312ZM9.5 16.4844C7.96534 16.4844 6.7168 15.1701 6.7168 13.5547C6.7168 11.9393 7.96534 10.625 9.5 10.625C11.0347 10.625 12.2832 11.9393 12.2832 13.5547C12.2832 15.1701 11.0347 16.4844 9.5 16.4844Z" fill="inherit"/>
    <path d="M9.5 11.7969C8.57921 11.7969 7.83008 12.5854 7.83008 13.5547C7.83008 14.5239 8.57921 15.3125 9.5 15.3125C10.4208 15.3125 11.1699 14.5239 11.1699 13.5547C11.1699 12.5854 10.4208 11.7969 9.5 11.7969ZM9.5 14.1406C9.19307 14.1406 8.94336 13.8778 8.94336 13.5547C8.94336 13.2316 9.19307 12.9688 9.5 12.9688C9.80693 12.9688 10.0566 13.2316 10.0566 13.5547C10.0566 13.8778 9.80693 14.1406 9.5 14.1406Z" fill="inherit"/>
    <path d="M9.5 8.20312C11.0347 8.20312 12.2832 6.88887 12.2832 5.27344C12.2832 3.65801 11.0347 2.34375 9.5 2.34375C7.96534 2.34375 6.7168 3.65801 6.7168 5.27344C6.7168 6.88887 7.96534 8.20312 9.5 8.20312ZM9.5 3.51562C10.4208 3.51562 11.1699 4.30418 11.1699 5.27344C11.1699 6.2427 10.4208 7.03125 9.5 7.03125C8.57921 7.03125 7.83008 6.2427 7.83008 5.27344C7.83008 4.30418 8.57921 3.51562 9.5 3.51562Z" fill="inherit"/>
    <path d="M9.5 5.85938C9.80742 5.85938 10.0566 5.59704 10.0566 5.27344C10.0566 4.94983 9.80742 4.6875 9.5 4.6875C9.19258 4.6875 8.94336 4.94983 8.94336 5.27344C8.94336 5.59704 9.19258 5.85938 9.5 5.85938Z" fill="inherit"/>
    <path d="M4.97266 3.51563C5.28008 3.51563 5.5293 3.25329 5.5293 2.92969C5.5293 2.60608 5.28008 2.34375 4.97266 2.34375C4.66523 2.34375 4.41602 2.60608 4.41602 2.92969C4.41602 3.25329 4.66523 3.51563 4.97266 3.51563Z" fill="inherit"/>
    <path d="M14.0273 3.51563C14.3348 3.51563 14.584 3.25329 14.584 2.92969C14.584 2.60608 14.3348 2.34375 14.0273 2.34375C13.7199 2.34375 13.4707 2.60608 13.4707 2.92969C13.4707 3.25329 13.7199 3.51563 14.0273 3.51563Z" fill="inherit"/>
    <path d="M4.97266 17.6563C5.28008 17.6563 5.5293 17.3939 5.5293 17.0703C5.5293 16.7467 5.28008 16.4844 4.97266 16.4844C4.66523 16.4844 4.41602 16.7467 4.41602 17.0703C4.41602 17.3939 4.66523 17.6563 4.97266 17.6563Z" fill="inherit"/>
    <path d="M14.0273 17.6563C14.3348 17.6563 14.584 17.3939 14.584 17.0703C14.584 16.7467 14.3348 16.4844 14.0273 16.4844C13.7199 16.4844 13.4707 16.7467 13.4707 17.0703C13.4707 17.3939 13.7199 17.6563 14.0273 17.6563Z" fill="inherit"/>
  </symbol>

  <symbol id="icon-yoga" width="19" height="19" viewBox="0 0 19 19" xmlns="http://www.w3.org/2000/svg">
    <g clip-path="url(#clip0)">
    <path d="M15.8272 13.2789C15.9525 13.035 16.0193 12.7633 16.0193 12.4811C16.0193 9.64573 14.1995 7.22776 11.6667 6.33275C12.5005 5.68497 13.0381 4.67304 13.0381 3.53779C13.0381 1.58706 11.4511 0 9.5004 0C7.54967 0 5.96265 1.58706 5.96265 3.53775C5.96265 4.673 6.50029 5.68493 7.33418 6.33271C4.80135 7.22772 2.98154 9.64569 2.98154 12.4811C2.98154 12.7628 3.04808 13.0341 3.17288 13.2775C2.54918 13.4926 1.19287 14.2999 1.19287 16.0585C1.19287 17.6804 2.51244 19 4.13438 19H14.8664C16.4884 19 17.808 17.6804 17.808 16.0585C17.8079 14.7729 16.9786 13.6781 15.8272 13.2789ZM7.07593 3.53775C7.07593 2.20092 8.16353 1.11328 9.5004 1.11328C10.8372 1.11328 11.9249 2.20092 11.9249 3.53775C11.9249 4.87458 10.8373 5.96225 9.5004 5.96225C8.16353 5.96225 7.07593 4.87461 7.07593 3.53775ZM9.5004 7.07553C12.4811 7.07553 14.906 9.50048 14.906 12.4811C14.906 12.8322 14.6218 13.1169 14.2702 13.1169H10.057V10.0566H10.0966C10.776 10.0566 11.3286 10.6093 11.3286 11.2887C11.3286 11.5961 11.5779 11.8453 11.8853 11.8453H13.0777C13.3852 11.8453 13.6344 11.5961 13.6344 11.2887C13.6344 10.9813 13.3852 10.732 13.0777 10.732H12.3752C12.1246 9.70662 11.1981 8.94336 10.0966 8.94336H8.90357C7.80235 8.94336 6.87599 9.70651 6.62554 10.732H5.92306C5.61564 10.732 5.36641 10.9813 5.36641 11.2887C5.36641 11.5961 5.61564 11.8453 5.92306 11.8453H7.11549C7.4229 11.8453 7.67213 11.5955 7.67213 11.2881C7.67213 10.6091 8.22454 10.0566 8.90357 10.0566H8.94376V13.1169H4.73062C4.38038 13.1169 4.09482 12.8335 4.09482 12.4811C4.09482 9.50045 6.51974 7.07553 9.5004 7.07553ZM14.8664 17.8867H13.5809C13.3199 16.5301 12.1245 15.5018 10.6929 15.5018H5.92306C5.61564 15.5018 5.36641 15.751 5.36641 16.0585C5.36641 16.3659 5.61564 16.6151 5.92306 16.6151H10.6929C11.5069 16.6151 12.1981 17.15 12.4342 17.8867H4.13438C3.12627 17.8867 2.30612 17.0666 2.30612 16.0585C2.30612 15.0488 3.12289 14.2302 4.13438 14.2302H14.8664C15.8745 14.2302 16.6947 15.0503 16.6947 16.0585C16.6947 17.0666 15.8745 17.8867 14.8664 17.8867Z" fill="inherit"/>
    </g>
    <defs>
    <clipPath id="clip0">
    <rect width="19" height="19" fill="white"/>
    </clipPath>
    </defs>
  </symbol>

  <symbol id="icon-lr" width="25" height="20" viewBox="0 0 25 20" xmlns="http://www.w3.org/2000/svg">
    <path d="M7.77015 14.9587V16.1777H0V1.8595H1.34104V14.9587H7.77015Z" fill="inherit"/>
    <path d="M10.0963 0H11.319V20H10.0963V0Z" fill="inherit"/>
    <path d="M24.1717 6.15702C24.1717 7.23141 23.9022 8.07851 23.3631 8.69835C22.8241 9.31818 22.1141 9.76584 21.2333 10.0413C21.4436 10.3168 21.7131 10.6887 22.0418 11.157C22.3837 11.6253 22.7321 12.1419 23.087 12.7066C23.442 13.2576 23.7904 13.8361 24.1323 14.4421C24.4741 15.0482 24.7633 15.6267 25 16.1777H23.5604C23.2843 15.6267 22.9819 15.0758 22.6532 14.5248C22.3376 13.9738 22.009 13.4435 21.6671 12.9339C21.3384 12.4105 21.0163 11.9284 20.7008 11.4876C20.3852 11.0468 20.1091 10.6612 19.8725 10.3306C19.4518 10.3719 19.0311 10.3926 18.6103 10.3926H16.4016V16.1777H15.0605V2.1281C15.5338 1.99036 16.086 1.89394 16.7171 1.83884C17.3613 1.76997 17.953 1.73554 18.492 1.73554C20.3721 1.73554 21.7854 2.10744 22.7321 2.85124C23.6918 3.59504 24.1717 4.69697 24.1717 6.15702ZM18.6498 2.95455C18.1502 2.95455 17.7097 2.97521 17.3285 3.01653C16.9603 3.04408 16.6514 3.07163 16.4016 3.09917V9.19421H18.2554C18.8733 9.19421 19.4583 9.16667 20.0105 9.11157C20.5627 9.0427 21.0426 8.90496 21.4502 8.69835C21.8578 8.47796 22.1799 8.16805 22.4165 7.7686C22.6532 7.36915 22.7715 6.82507 22.7715 6.13636C22.7715 5.50276 22.6532 4.97934 22.4165 4.56612C22.1799 4.15289 21.8709 3.8292 21.4896 3.59504C21.1084 3.34711 20.6679 3.18182 20.1683 3.09917C19.6819 3.00275 19.1757 2.95455 18.6498 2.95455Z" fill="inherit"/>
  </symbol>

  <symbol id="icon-stereo" width="28" height="19" fill="none" viewBox="0 0 28 19" xmlns="http://www.w3.org/2000/svg">
    <path d="M7.62656 14.6563L7.61536 14.6597L7.60428 14.6636C7.18677 14.8083 6.72643 14.8841 6.26287 14.8841H3.78045V1.12168H6.26287C6.7281 1.12168 7.18826 1.196 7.60428 1.34026L7.61515 1.34403L7.62615 1.34741C10.0056 2.0793 11.8757 4.72212 11.8757 7.99303C11.8757 11.2848 10.0048 13.9265 7.62656 14.6563Z" stroke="black" stroke-width="1.3"/>
    <path d="M24.5837 1.18491H27.0661V14.9257H24.5837C24.1005 14.9257 23.6526 14.8524 23.1945 14.7183C20.8219 13.9881 18.9708 11.3293 18.9708 8.0543C18.9708 4.76131 20.8204 2.12355 23.1934 1.39255C23.6542 1.2595 24.1023 1.18491 24.5837 1.18491Z" stroke="black" stroke-width="1.3"/>
    <line x1="15.2447" y1="2.84129e-08" x2="15.2447" y2="16" stroke="black" stroke-width="1.3"/>
  </symbol>

  <symbol id="icon-3dglasses" width="26" height="26" viewBox="0 0 26 26" xmlns="http://www.w3.org/2000/svg">
    <path d="M24.2177 7.09082H1.77241C0.792384 7.09082 0.38916 7.44856 0.38916 8.42859V17.2346C0.38916 18.4003 0.948125 19.0205 2.11381 19.0205H8.76422C9.32896 19.0205 9.85998 18.8005 10.2594 18.4011L12.9997 15.9888L15.74 18.2896C16.1395 18.689 16.6705 18.909 17.2352 18.909H23.8857C25.0513 18.909 25.4088 18.302 25.4088 17.1363V8.33034C25.4088 7.35036 25.1978 7.09082 24.2177 7.09082ZM24.4762 17.2346C24.4762 17.5602 24.2113 17.8252 23.8857 17.8252H17.2352C17.0797 17.8252 16.9274 17.762 16.8173 17.652L13.5383 14.373C13.3896 14.2243 13.1946 14.1499 12.9997 14.1499C12.8048 14.1499 12.6098 14.2243 12.4612 14.373L9.18215 17.652C9.07206 17.762 8.91971 17.8252 8.76422 17.8252H2.11371C1.78805 17.8252 1.52312 17.5602 1.52312 17.2346V8.42859C1.52312 8.28859 1.63702 8.17468 1.77703 8.17468H24.2223C24.3623 8.17468 24.4762 8.28859 24.4762 8.42859V17.2346Z" fill="inherit"/>
    <path d="M10.918 9.69824H3.80859C3.38792 9.69824 3.04688 10.0393 3.04688 10.46V15.5381C3.04688 15.9588 3.38792 16.2998 3.80859 16.2998H7.87109C8.0731 16.2998 8.26683 16.2196 8.40968 16.0767L11.4566 13.0298C11.5994 12.887 11.6797 12.6932 11.6797 12.4912V10.46C11.6797 10.0393 11.3386 9.69824 10.918 9.69824ZM10.1562 12.1758L7.55559 14.7764H4.57031V11.2217H10.1562V12.1758Z" fill="inherit"/>
    <path d="M22.1914 9.69824H15.082C14.6614 9.69824 14.3203 10.0393 14.3203 10.46V12.4912C14.3203 12.6933 14.4006 12.887 14.5434 13.0298L17.5903 16.0767C17.7332 16.2195 17.9269 16.2998 18.1289 16.2998H22.1914C22.6121 16.2998 22.9531 15.9588 22.9531 15.5381V10.46C22.9531 10.0393 22.6121 9.69824 22.1914 9.69824ZM21.8636 14.7728L18.4444 14.7764L15.6093 12.1758V10.9665L21.8636 10.9629V14.7728Z" fill="inherit"/>
  </symbol>

  <symbol id="icon-kube" width="24" height="21" viewBox="0 0 24 21" fill="none" xmlns="http://www.w3.org/2000/svg">
    <rect x="7.26943" y="5.6022" width="8.80439" height="8.80439" stroke="#000000" stroke-width="1.2"/>
    <line x1="3.93496" y1="2.50098" x2="3.93496" y2="17.5076" stroke="#000000" stroke-width="1.2"/>
    <line x1="0.6" y1="2.62268e-08" x2="0.599999" y2="20.0088" stroke="#000000" stroke-width="1.2"/>
    <line x1="19.7753" y1="2.50098" x2="19.7753" y2="17.5076" stroke="#000000" stroke-width="1.2"/>
    <line x1="23.1098" y1="2.62268e-08" x2="23.1098" y2="20.0088" stroke="#000000" stroke-width="1.2"/>
  </symbol>

  <symbol id="icon-price-sale" width="70" height="70" viewBox="0 0 70 70" fill="none" xmlns="http://www.w3.org/2000/svg">
    <g opacity="0.7" clip-path="url(#clip0)">
    <path fill-rule="evenodd" clip-rule="evenodd" d="M9.66047 15.2992C9.50506 15.2566 9.34257 15.2463 9.18301 15.2688C9.02168 15.2934 8.86659 15.3487 8.72613 15.4317C8.4119 15.6272 8.18706 15.938 8.0999 16.2973C8.06511 16.4564 8.06127 16.6208 8.08858 16.7814C8.11732 16.9396 8.17821 17.0903 8.26749 17.2242C8.3581 17.3629 8.47362 17.4837 8.60823 17.5806C8.74339 17.6793 8.896 17.7516 9.05806 17.7939C9.21237 17.8348 9.37338 17.8441 9.5314 17.8213C9.69279 17.7968 9.84795 17.7415 9.98842 17.6585C10.3027 17.4629 10.5275 17.1521 10.6146 16.7929C10.6494 16.6337 10.6532 16.4693 10.6258 16.3087C10.5977 16.1517 10.5382 16.0021 10.4509 15.8686C10.2667 15.5881 9.98522 15.3853 9.66047 15.2992ZM15.2256 13.8772C14.9927 13.9755 14.7517 14.0534 14.5053 14.1099L14.8031 14.9051C14.8849 14.8881 14.9936 14.859 15.1293 14.818C15.2858 14.7688 15.4386 14.7088 15.5868 14.6385C15.7763 14.5491 15.9607 14.4493 16.1391 14.3394C16.3539 14.2067 16.5579 14.0573 16.7491 13.8927C17.3629 13.3707 17.7326 12.8426 17.8583 12.3082C17.9204 12.0455 17.9162 11.7716 17.8461 11.5109C17.776 11.2503 17.6422 11.0111 17.4567 10.8148C17.2773 10.5929 17.0542 10.4101 16.8012 10.2777C16.5802 10.1688 16.3385 10.1085 16.0922 10.1007C15.8312 10.0945 15.5707 10.1261 15.3188 10.1948C15.0509 10.2654 14.7638 10.3522 14.4577 10.4552C14.2434 10.5326 14.0431 10.598 13.8569 10.6515C13.6855 10.7023 13.5095 10.7357 13.3314 10.7511C13.1782 10.7654 13.0238 10.7471 12.8783 10.6973C12.7254 10.638 12.591 10.5391 12.4891 10.4107C12.3879 10.2979 12.3182 10.1605 12.2869 10.0124C12.2602 9.87417 12.2667 9.73156 12.306 9.59634C12.3499 9.44976 12.4188 9.31183 12.5096 9.18862C12.6125 9.04739 12.7323 8.91928 12.8664 8.80717C13.111 8.59214 13.3857 8.41383 13.6818 8.27784C13.8859 8.18155 14.1011 8.11079 14.3226 8.06716L14.0464 7.2667C13.779 7.31457 13.5206 7.40367 13.2807 7.53078C12.9351 7.70177 12.6129 7.91625 12.3219 8.16898C11.769 8.63914 11.4456 9.13703 11.3517 9.66265C11.2578 10.1883 11.4074 10.6814 11.8005 11.1421C11.962 11.3424 12.1657 11.5048 12.397 11.6179C12.6002 11.7113 12.8202 11.7626 13.0438 11.7686C13.2806 11.7732 13.5169 11.7444 13.7456 11.683C13.9967 11.6176 14.2435 11.5369 14.4846 11.4412C14.7039 11.3597 14.9143 11.2856 15.1158 11.2191C15.305 11.1552 15.5011 11.1139 15.7 11.0959C15.8791 11.0792 16.0597 11.0996 16.2305 11.1559C16.4095 11.221 16.5672 11.334 16.6862 11.4825C17.1358 12.0091 16.975 12.6001 16.2039 13.2556C15.9137 13.5144 15.5833 13.7243 15.2256 13.8772ZM24.5672 8.76917C23.9854 8.25079 23.4442 7.77285 22.9438 7.33536C22.4433 6.89786 21.9621 6.48585 21.5002 6.09931C21.0383 5.71277 20.5899 5.34736 20.155 5.00308C19.7201 4.65879 19.2785 4.3237 18.8304 3.99781L18.0469 4.41828C18.0721 4.971 18.1087 5.52361 18.1564 6.07613C18.2041 6.62865 18.2622 7.20346 18.3306 7.80058C18.3992 8.39819 18.4782 9.02597 18.5677 9.68392C18.6572 10.3419 18.7581 11.0559 18.8705 11.8259L19.7597 11.3488L19.4766 9.49584L22.2412 8.01243C22.477 8.22575 22.7076 8.43604 22.933 8.6433C23.1584 8.85055 23.392 9.05937 23.6336 9.26976L24.5672 8.76917ZM19.3449 8.66046C19.2521 8.05327 19.1696 7.46153 19.0975 6.88525C19.0253 6.30896 18.9737 5.74559 18.9424 5.19512C19.3785 5.52767 19.8176 5.88291 20.2598 6.26084C20.702 6.63877 21.1542 7.0323 21.6165 7.44143L19.3449 8.66046ZM26.2098 7.4806L24.519 1.64411L23.5876 1.91303L25.5124 8.55439L29.5166 7.39874L29.2833 6.59373L26.2098 7.4806ZM35.0005 6.86441L34.9284 6.03945L31.4331 6.34344L31.2249 3.95819L34.1129 3.70761L34.0426 2.9026L31.1548 3.15377L30.976 1.10626L34.2224 0.823985L34.1504 -0.000976562L29.9381 0.365363L30.5393 7.25291L35.0005 6.86441ZM41.2754 3.55855C41.2434 3.40093 41.1796 3.2515 41.0876 3.11944C40.993 2.98674 40.8737 2.87339 40.7363 2.78552C40.4199 2.59355 40.0407 2.53297 39.6801 2.61681C39.522 2.65746 39.3733 2.72804 39.2419 2.8247C39.1132 2.92153 39.0058 3.0436 38.9261 3.18341C38.7581 3.47377 38.7033 3.81576 38.7722 4.14393C38.8052 4.29986 38.8692 4.44756 38.9607 4.5782C39.0552 4.71096 39.1745 4.82432 39.312 4.91212C39.6284 5.10409 40.0076 5.16467 40.3682 5.08083C40.5263 5.04021 40.675 4.96963 40.8064 4.87294C40.9342 4.77736 41.0413 4.657 41.1213 4.51907C41.2058 4.37477 41.2622 4.21583 41.2876 4.05062C41.3139 3.88745 41.3098 3.72082 41.2755 3.55914L41.2754 3.55855ZM49.9743 6.58566L46.897 5.16872L48.1074 2.55093L47.227 2.14557L44.325 8.42337L45.2054 8.82874L46.5455 5.92986L49.6225 7.34665L48.2821 10.245L49.1625 10.6503L52.0646 4.37251L51.1841 3.96714L49.9743 6.58566ZM51.8706 10.0805C51.7197 10.5066 51.6601 10.9595 51.6954 11.41C51.7323 11.8331 51.8598 12.2433 52.0693 12.613C52.2851 12.994 52.5691 13.3321 52.9072 13.6107C53.237 13.8892 53.6158 14.1039 54.0244 14.2439C54.4229 14.3799 54.846 14.4291 55.2651 14.3881C55.7143 14.34 56.1487 14.1999 56.5411 13.9766C57.0051 13.7106 57.4153 13.3605 57.7506 12.9443C58.1014 12.5409 58.3738 12.0758 58.5538 11.5728C58.7042 11.1477 58.7651 10.6962 58.7329 10.2466C58.6987 9.82767 58.5751 9.42094 58.3704 9.05365C58.1598 8.67697 57.8806 8.34281 57.5472 8.06833C57.2123 7.78581 56.8283 7.56701 56.4142 7.4228C56.0126 7.28292 55.5857 7.23049 55.1621 7.26904C54.7116 7.31449 54.2757 7.45357 53.8823 7.67734C52.9599 8.22972 52.2512 9.07639 51.8706 10.0805ZM54.3127 8.5871C54.5885 8.40319 54.8975 8.27453 55.2225 8.20829C55.5239 8.1502 55.8347 8.16245 56.1305 8.24409C56.4466 8.33401 56.7392 8.49156 56.9881 8.70579C57.2425 8.9109 57.4486 9.16936 57.5917 9.46283C57.7225 9.73842 57.7885 10.0402 57.7844 10.3452C57.7767 10.6761 57.7048 11.0025 57.5726 11.3061C57.2565 12.0156 56.7481 12.6227 56.1046 13.0592C55.8288 13.243 55.5198 13.3717 55.1949 13.438C54.8949 13.496 54.5856 13.4849 54.2907 13.4054C53.9759 13.3169 53.6845 13.1604 53.437 12.9469C53.1815 12.7406 52.9742 12.4812 52.8295 12.1867C52.6964 11.9106 52.6292 11.6076 52.6329 11.3013C52.6405 10.9703 52.7124 10.6439 52.8448 10.3403C53.1608 9.63082 53.6693 9.02358 54.3127 8.5871ZM61.3463 11.8456L60.6759 12.3507L61.9885 14.0868L57.1292 17.7463L57.7133 18.5188L62.5722 14.8592L63.8848 16.5952L64.5551 16.0904L61.3463 11.8456ZM67.4205 21.6621C67.2954 21.3803 67.1468 21.1096 66.9761 20.8528L60.5742 23.2203L60.911 24.1277L63.32 23.2369L63.5874 23.9572C63.7359 24.37 63.926 24.7666 64.1549 25.1411C64.3375 25.4455 64.5759 25.7128 64.8578 25.9291C65.1095 26.1175 65.4071 26.2352 65.7198 26.27C66.0723 26.3006 66.4271 26.2478 66.7553 26.1158C67.4427 25.8615 67.869 25.4255 68.0342 24.8077C68.1994 24.19 68.113 23.4258 67.7747 22.5152C67.6776 22.2535 67.5595 21.9692 67.4205 21.6624V21.6621ZM67.2063 23.5978C67.2495 23.8119 67.2536 24.032 67.2184 24.2476C67.1847 24.4444 67.101 24.6292 66.9752 24.7844C66.8243 24.9576 66.6291 25.0868 66.4104 25.1581C66.1897 25.2497 65.9492 25.2837 65.7116 25.257C65.5096 25.2265 65.3204 25.1398 65.1656 25.0067C64.9871 24.8489 64.8379 24.661 64.7246 24.4515C64.5784 24.1888 64.4535 23.9148 64.3512 23.6321L64.0977 22.9492L66.6473 22.0064C66.7424 22.2053 66.8617 22.498 67.0052 22.8846C67.0924 23.1163 67.1597 23.355 67.2063 23.5981V23.5978ZM66.7074 32.9086C67.0796 33.1087 67.5076 33.1806 67.925 33.1131C68.6449 33.0167 69.1526 32.692 69.4482 32.1391C69.7438 31.5862 69.8268 30.8285 69.6974 29.8661C69.6602 29.5892 69.6077 29.286 69.5398 28.9565C69.4799 28.6542 69.3944 28.3575 69.2844 28.0696L62.5177 28.9754L62.6466 29.9344L65.3316 29.5751L65.4471 30.4353C65.4595 30.5276 65.4717 30.6183 65.4837 30.7073C65.4958 30.7963 65.5108 30.8832 65.5289 30.968C65.3936 31.1134 65.2341 31.2773 65.0502 31.4598C64.8664 31.6423 64.6678 31.8281 64.4546 32.0173C64.2413 32.2069 64.0163 32.3963 63.7796 32.5857C63.5428 32.775 63.3076 32.9524 63.074 33.1179L63.2148 34.1661C63.4795 34.0003 63.7347 33.82 63.9792 33.6259C64.2406 33.4198 64.4905 33.2136 64.7289 33.0072C64.9673 32.8008 65.1829 32.6025 65.3757 32.4124C65.5685 32.2221 65.7239 32.0656 65.842 31.9429C66.0238 32.3462 66.3261 32.6836 66.7074 32.9089V32.9086ZM68.9042 30.7927C68.8992 31.0057 68.8557 31.2161 68.7758 31.4137C68.7003 31.5936 68.5786 31.7505 68.423 31.8685C68.2393 32.0002 68.0241 32.0812 67.799 32.1033C67.5683 32.145 67.3306 32.1248 67.1103 32.0446C66.9283 31.9681 66.7727 31.8403 66.6624 31.6768C66.5334 31.4803 66.4394 31.263 66.3846 31.0345C66.3099 30.7439 66.2534 30.4489 66.2154 30.1513L66.1236 29.4691L68.7095 29.1228C68.7585 29.338 68.8105 29.6498 68.8655 30.0583C68.8995 30.3016 68.9125 30.5474 68.9042 30.793V30.7927ZM63.0753 35.2177L63.0513 36.1851L69.9765 36.356L70.0005 35.3886L63.0753 35.2177ZM62.2318 41.5821C62.2209 41.7952 62.2221 42.0088 62.2355 42.2219C62.245 42.379 62.2654 42.5353 62.2965 42.6896C62.3134 42.7812 62.3394 42.871 62.3741 42.9575L63.2058 42.8568C63.147 42.6293 63.1049 42.3978 63.0797 42.1642C63.0444 41.7915 63.0658 41.4155 63.1432 41.0492C63.1989 40.7056 63.3288 40.3781 63.5239 40.0895C63.701 39.8348 63.9364 39.626 64.2107 39.4805C64.5027 39.3295 64.822 39.2383 65.1498 39.2121C65.5298 39.1802 65.9125 39.201 66.2868 39.2741C66.6723 39.3399 67.0452 39.465 67.3923 39.645C67.6899 39.7988 67.9532 40.0112 68.1664 40.2694C68.3637 40.5131 68.5022 40.7989 68.5711 41.1046C68.6426 41.4358 68.6451 41.7782 68.5784 42.1104C68.5471 42.2797 68.5011 42.4461 68.4408 42.6074C68.3851 42.7586 68.3188 42.9056 68.2425 43.0476C68.1707 43.1796 68.1015 43.297 68.0351 43.3997C67.9842 43.4822 67.9256 43.5597 67.8602 43.6313L68.5952 44.0508C68.6511 43.9888 68.7038 43.924 68.753 43.8567C68.8401 43.7367 68.9178 43.6103 68.9855 43.4784C69.0797 43.2962 69.162 43.108 69.2318 42.9151C69.3197 42.6714 69.3865 42.4206 69.4313 42.1655C69.5135 41.7362 69.5122 41.2952 69.4275 40.8664C69.3449 40.4501 69.1752 40.0559 68.9296 39.7096C68.6656 39.344 68.3302 39.0355 67.9435 38.8027C67.4917 38.5325 66.9931 38.3495 66.4735 38.2633C65.9595 38.1598 65.4317 38.1432 64.9122 38.2143C64.473 38.2754 64.0517 38.4283 63.6758 38.6631C63.322 38.8892 63.0231 39.1911 62.801 39.547C62.5625 39.9332 62.4006 40.3616 62.324 40.8087C62.2755 41.0643 62.2447 41.3229 62.2318 41.5826V41.5821ZM59.9533 48.0814L60.7189 48.4008L62.072 45.17L64.2854 46.0934L63.1682 48.7627L63.9152 49.0743L65.0325 46.4051L66.9323 47.1973L65.6756 50.198L66.441 50.5174L68.0718 46.6238L61.6804 43.9575L59.9533 48.0814ZM59.9542 55.162C60.1087 55.2074 60.271 55.2207 60.4309 55.2012C60.5927 55.1796 60.7489 55.1272 60.8909 55.0468C61.2086 54.8572 61.4392 54.5508 61.5332 54.1934C61.571 54.0348 61.5779 53.8705 61.5535 53.7093C61.5277 53.5505 61.4696 53.3987 61.3829 53.2631C61.2949 53.1229 61.1819 53 61.0493 52.9007C60.916 52.7995 60.7648 52.7243 60.6036 52.6791C60.4501 52.6353 60.2893 52.623 60.1309 52.6428C59.969 52.6643 59.8129 52.7167 59.6709 52.7972C59.3531 52.9868 59.1225 53.2932 59.0285 53.6506C58.9907 53.8092 58.9838 53.9735 59.0082 54.1347C59.0333 54.2921 59.09 54.4428 59.1749 54.5778C59.2636 54.7198 59.3783 54.8438 59.513 54.9433C59.6453 55.0428 59.7948 55.1171 59.954 55.1624L59.9542 55.162ZM54.3642 56.4792C54.5989 56.3853 54.8415 56.3119 55.089 56.26L54.8059 55.4594C54.724 55.4749 54.6147 55.502 54.4782 55.5405C54.3209 55.5868 54.167 55.6439 54.0175 55.7114C53.8264 55.7972 53.6402 55.8936 53.4598 56.0002C53.2426 56.1289 53.0358 56.2745 52.8414 56.4355C52.2179 56.9459 51.8384 57.4673 51.7029 57.9997C51.6358 58.2612 51.6349 58.5352 51.7001 58.7971C51.7653 59.059 51.8947 59.3007 52.0765 59.5004C52.2517 59.7256 52.4713 59.9125 52.7217 60.0496C52.9405 60.1628 53.1812 60.2278 53.4273 60.2403C53.6881 60.2515 53.9491 60.2247 54.2022 60.1608C54.4715 60.0951 54.7601 60.0137 55.068 59.9165C55.2836 59.8431 55.485 59.7815 55.6723 59.7315C55.8446 59.6838 56.0214 59.6538 56.1998 59.6417C56.3531 59.6302 56.5071 59.6514 56.6516 59.7039C56.8031 59.7661 56.9353 59.8674 57.0347 59.9973C57.1337 60.112 57.2008 60.2507 57.2292 60.3993C57.2534 60.538 57.2441 60.6804 57.2023 60.8148C57.1561 60.9608 57.0849 61.0977 56.9919 61.2195C56.8865 61.3589 56.7642 61.485 56.628 61.5947C56.3794 61.805 56.1015 61.978 55.803 62.1082C55.5971 62.2007 55.3805 62.2675 55.1583 62.307L55.4195 63.1125C55.6878 63.0696 55.9478 62.9852 56.1901 62.8623C56.5387 62.6978 56.8647 62.4893 57.1603 62.242C57.722 61.7823 58.0548 61.2906 58.1585 60.7667C58.2085 60.5032 58.1965 60.2316 58.1234 59.9735C58.0504 59.7154 57.9183 59.4777 57.7375 59.2792C57.5796 59.0759 57.3789 58.9097 57.1495 58.7924C56.948 58.6951 56.7287 58.6398 56.5051 58.6297C56.2684 58.6206 56.0316 58.645 55.8018 58.7022C55.5495 58.7628 55.3012 58.839 55.0583 58.9302C54.8376 59.0076 54.6259 59.0777 54.4231 59.1404C54.2328 59.2008 54.0359 59.2385 53.8367 59.2528C53.6574 59.2661 53.4772 59.2423 53.3075 59.1829C53.1297 59.1145 52.9741 58.9986 52.8577 58.8479C52.4182 58.3131 52.59 57.7252 53.3732 57.0839C53.6685 56.8302 54.0031 56.6261 54.364 56.4796L54.3642 56.4792ZM44.9291 61.4114C45.5012 61.9404 46.0333 62.4284 46.5253 62.8754C47.0174 63.3224 47.4906 63.7433 47.9451 64.1383C48.3996 64.5333 48.841 64.9071 49.2694 65.2595C49.6978 65.6119 50.1329 65.9552 50.5749 66.2894L51.3662 65.8837C51.3512 65.3306 51.3251 64.7776 51.2879 64.2247C51.2506 63.6718 51.2034 63.096 51.1462 62.4973C51.089 61.8985 51.0218 61.2694 50.9445 60.6099C50.8672 59.9503 50.7797 59.2344 50.6821 58.4621L49.7839 58.9225L50.0322 60.7805L47.2401 62.2121C47.0083 61.9946 46.7817 61.7799 46.5602 61.568C46.3387 61.3562 46.1091 61.143 45.8715 60.9285L44.9291 61.4114ZM50.1486 61.6181C50.2298 62.2269 50.301 62.8203 50.3624 63.3981C50.4237 63.976 50.4649 64.54 50.4858 65.0902C50.056 64.7496 49.6236 64.3862 49.1887 63.9999C48.7538 63.6137 48.309 63.2117 47.8545 62.794L50.1486 61.6181ZM43.2622 62.6685L44.8432 68.5357L45.7796 68.2844L43.9803 61.6088L39.955 62.6892L40.1731 63.4985L43.2622 62.6685ZM34.4657 63.12L34.5224 63.9461L38.0228 63.7065L38.1869 66.0953L35.2948 66.2932L35.3502 67.1001L38.2421 66.9022L38.383 68.9526L35.1319 69.1749L35.1886 70.001L39.4076 69.7125L38.9338 62.8151L34.4657 63.12ZM30.7304 66.7641C30.7723 66.9194 30.8456 67.0645 30.9457 67.1905C31.0487 67.3169 31.1749 67.4225 31.3177 67.5015C31.6456 67.673 32.0279 67.7094 32.3824 67.6029C32.5375 67.5524 32.6815 67.4727 32.8066 67.3682C32.9288 67.2634 33.0282 67.1347 33.0987 66.9901C33.248 66.6897 33.281 66.3449 33.1913 66.0218C33.1485 65.8682 33.0751 65.7249 32.9755 65.6003C32.8727 65.4738 32.7464 65.3682 32.6036 65.2894C32.2757 65.1177 31.8934 65.0813 31.5389 65.188C31.3837 65.2384 31.2397 65.3181 31.1147 65.4228C30.9933 65.5263 30.8941 65.6532 30.823 65.7958C30.7479 65.9453 30.7017 66.1075 30.6869 66.274C30.671 66.4386 30.6858 66.6048 30.7304 66.7641ZM21.8546 64.2994L25.016 65.5171L23.9758 68.2069L24.8805 68.5553L27.3745 62.1053L26.47 61.7569L25.3183 64.7351L22.1569 63.5174L23.3085 60.5392L22.404 60.1907L19.91 66.6408L20.8144 66.9892L21.8546 64.2994ZM19.7391 60.9319C19.8626 60.4971 19.8934 60.0414 19.8297 59.594C19.7658 59.1743 19.6125 58.7731 19.3802 58.4175C19.1406 58.0509 18.8356 57.7313 18.4804 57.4745C18.1334 57.2173 17.7415 57.027 17.3246 56.9132C16.9183 56.8027 16.493 56.7803 16.0773 56.8477C15.6321 56.9241 15.2075 57.0913 14.83 57.3389C13.9444 57.9487 13.2905 58.8386 12.9742 59.865C12.851 60.2988 12.8189 60.7533 12.8796 61.2001C12.9403 61.616 13.0894 62.0141 13.317 62.3678C13.551 62.7303 13.8507 63.0462 14.2007 63.2991C14.5529 63.5601 14.9501 63.7543 15.3725 63.8722C15.7821 63.9864 16.2115 64.0117 16.6318 63.9465C17.0785 63.8724 17.5047 63.7058 17.883 63.4574C18.7687 62.8479 19.4227 61.9582 19.7391 60.9319ZM17.3965 62.5762C17.1329 62.7772 16.8327 62.9252 16.5126 63.0118C16.2155 63.0888 15.9046 63.0963 15.6042 63.0335C15.2831 62.9638 14.981 62.825 14.7191 62.627C14.4521 62.4384 14.2301 62.1935 14.0686 61.9096C13.9205 61.6428 13.8356 61.3458 13.8203 61.0412C13.8069 60.7104 13.8581 60.3802 13.9708 60.0689C14.2413 59.341 14.7101 58.7029 15.3244 58.2265C15.5881 58.0257 15.8884 57.8778 16.2085 57.7911C16.5042 57.7142 16.8135 57.7058 17.113 57.7664C17.4327 57.8348 17.7335 57.9726 17.9939 58.17C18.2619 58.3599 18.4853 58.6057 18.6485 58.8904C18.7988 59.1575 18.8851 59.4557 18.9008 59.7616C18.9143 60.0924 18.8632 60.4227 18.7503 60.734C18.4798 61.462 18.0109 62.1 17.3965 62.5762ZM10.1701 59.7679L10.8071 59.2218L9.38734 57.572L14.0046 53.613L13.3725 52.8795L8.75523 56.838L7.33521 55.1884L6.69825 55.7345L10.1701 59.7679ZM3.48643 50.3609C3.62924 50.634 3.79492 50.8946 3.98168 51.1399L10.2188 48.3684L9.82437 47.4844L7.4775 48.5272L7.16439 47.8255C6.9897 47.4231 6.77451 47.0394 6.52214 46.6803C6.32037 46.3882 6.06523 46.1366 5.77009 45.9388C5.50685 45.7669 5.20231 45.6685 4.88808 45.6537C4.53435 45.6457 4.18371 45.7211 3.86466 45.8738C3.19502 46.1713 2.79763 46.6337 2.67249 47.2608C2.54734 47.888 2.68268 48.6451 3.0785 49.5321C3.19228 49.7873 3.32826 50.0635 3.48643 50.3609ZM3.57595 48.4153C3.5191 48.2044 3.50092 47.985 3.5223 47.7676C3.54327 47.5691 3.61495 47.3793 3.73045 47.2164C3.87001 47.0339 4.05649 46.8925 4.27009 46.8073C4.48451 46.7019 4.72225 46.6526 4.96099 46.664C5.16457 46.6815 5.35905 46.756 5.5221 46.8789C5.71022 47.0251 5.87114 47.2031 5.9975 47.4049C6.16036 47.6579 6.30258 47.9236 6.42277 48.1993L6.71957 48.8647L4.23525 49.9684C4.12745 49.7759 3.98956 49.4913 3.82159 49.1147C3.72 48.8889 3.63783 48.655 3.57595 48.4153ZM3.47702 39.0909C3.09277 38.9148 2.66101 38.8704 2.24883 38.9644C1.53666 39.1064 1.05072 39.4627 0.791022 40.0332C0.531321 40.6037 0.49702 41.3652 0.688121 42.3175C0.742904 42.5914 0.814689 42.8907 0.903478 43.2155C0.982618 43.5134 1.08682 43.804 1.21497 44.0844L7.90998 42.7493L7.72005 41.8004L5.06316 42.3309L4.89279 41.4799L4.83898 41.2109C4.82134 41.1228 4.80076 41.0371 4.77724 40.9535C4.90288 40.7998 5.0516 40.626 5.22339 40.4323C5.39519 40.2385 5.58139 40.0403 5.78199 39.8376C5.9827 39.6349 6.19512 39.4314 6.41924 39.2273C6.64337 39.0232 6.86657 38.8312 7.08883 38.6513L6.88127 37.6144C6.62765 37.7965 6.38447 37.9927 6.15288 38.2021C5.90523 38.4243 5.66929 38.646 5.44507 38.8671C5.22084 39.0883 5.01857 39.2998 4.83825 39.5018C4.65793 39.7042 4.51279 39.8705 4.40283 40.0006C4.1956 39.6094 3.87223 39.2916 3.47702 39.0909ZM1.41989 41.3423C1.41113 41.1294 1.44102 40.9167 1.50809 40.7144C1.57175 40.5301 1.683 40.3657 1.83061 40.238C2.00553 40.0949 2.21522 40.0005 2.43846 39.9643C2.666 39.908 2.90443 39.9131 3.12936 39.9789C3.31585 40.0437 3.47933 40.1614 3.59977 40.3175C3.74108 40.5054 3.8488 40.7163 3.91817 40.9408C4.01117 41.2261 4.08638 41.5169 4.14338 41.8115L4.27847 42.4864L1.72066 42.9964C1.65793 42.7851 1.58615 42.477 1.5053 42.0721C1.45591 41.8317 1.42734 41.5876 1.41989 41.3423ZM6.95594 36.5507L6.91949 35.5837L-0.00292969 35.8436L0.0335265 36.8105L6.95594 36.5507ZM7.39548 30.1489C7.39286 29.9355 7.37814 29.7225 7.35138 29.5107C7.3319 29.3545 7.3016 29.1999 7.26068 29.0479C7.23806 28.9574 7.20639 28.8695 7.16615 28.7854L6.34295 28.9386C6.41615 29.1619 6.47299 29.3903 6.51303 29.6219C6.57197 29.9914 6.57455 30.3677 6.52067 30.738C6.48707 31.0845 6.37838 31.4195 6.20212 31.7199C6.04158 31.9854 5.81982 32.2087 5.55532 32.3713C5.27359 32.5406 4.96083 32.6519 4.63539 32.6989C4.25809 32.7549 3.87483 32.7584 3.49657 32.7092C3.10765 32.668 2.72749 32.5669 2.36966 32.4093C2.06284 32.2747 1.78652 32.0795 1.55734 31.8354C1.34483 31.6047 1.1884 31.3282 1.10016 31.0274C1.00765 30.7015 0.98333 30.3601 1.02872 30.0244C1.04907 29.8533 1.08438 29.6844 1.13427 29.5195C1.1803 29.3651 1.23703 29.2141 1.30405 29.0675C1.36736 28.9306 1.42886 28.809 1.48854 28.7026C1.5341 28.6171 1.5876 28.536 1.64833 28.4604L0.887455 28.0885C0.835618 28.1539 0.787191 28.2219 0.742365 28.2923C0.663124 28.4175 0.593633 28.5486 0.534505 28.6845C0.452062 28.8723 0.381942 29.0654 0.324588 29.2624C0.252517 29.5111 0.201911 29.7656 0.173324 30.0231C0.118621 30.4567 0.148067 30.8968 0.260055 31.3194C0.369029 31.7295 0.563428 32.1121 0.830565 32.4422C1.11739 32.7902 1.47182 33.0767 1.87251 33.2845C2.34082 33.5256 2.85043 33.6765 3.37471 33.7294C3.89429 33.8 4.42206 33.783 4.936 33.6791C5.3703 33.5908 5.78104 33.412 6.14141 33.1545C6.48014 32.9064 6.75916 32.586 6.95815 32.2167C7.17149 31.8162 7.30579 31.3786 7.35373 30.9275C7.3856 30.6693 7.39965 30.4091 7.39577 30.1489H7.39548ZM9.25254 23.5167L8.46814 23.2469L7.32492 26.5574L5.05684 25.7772L6.00147 23.0421L5.23603 22.778L4.29141 25.5133L2.34467 24.8443L3.40646 21.7695L2.62206 21.4997L1.24423 25.4894L7.79341 27.7421L9.25254 23.5167Z" fill="black"/>
    </g>
    <g clip-path="url(#clip1)">
    <path d="M43.203 35.8807C42.951 32.5996 41.4234 30.5435 40.0757 28.7291C38.8278 27.0494 37.75 25.5989 37.75 23.4591C37.75 23.2872 37.6538 23.1301 37.5011 23.0514C37.348 22.9722 37.1641 22.9851 37.0249 23.0863C35.0009 24.5346 33.3121 26.9756 32.7222 29.3047C32.3127 30.9262 32.2585 32.7491 32.2509 33.953C30.3818 33.5538 29.9583 30.7579 29.9539 30.7275C29.9328 30.5824 29.8442 30.4562 29.7153 30.3873C29.5851 30.3193 29.432 30.3144 29.2999 30.3797C29.2019 30.4271 26.8941 31.5998 26.7598 36.2817C26.7504 36.4374 26.75 36.5937 26.75 36.7499C26.75 41.2984 30.4511 44.9993 35 44.9993C35.0063 44.9997 35.013 45.0006 35.0183 44.9993C35.0202 44.9993 35.0219 44.9993 35.0241 44.9993C39.5619 44.9863 43.25 41.2904 43.25 36.7499C43.25 36.5211 43.203 35.8807 43.203 35.8807ZM35 44.0827C33.4835 44.0827 32.25 42.7687 32.25 41.1534C32.25 41.0984 32.2496 41.0429 32.2536 40.9749C32.2719 40.2937 32.4013 39.8287 32.5432 39.5194C32.8091 40.0905 33.2844 40.6155 34.0565 40.6155C34.3098 40.6155 34.5148 40.4105 34.5148 40.1572C34.5148 39.5046 34.5283 38.7518 34.6908 38.0724C34.8353 37.47 35.1809 36.8291 35.6186 36.3153C35.8133 36.9822 36.1929 37.5219 36.5635 38.0487C37.0939 38.8024 37.6422 39.5816 37.7384 40.9104C37.7442 40.9892 37.7501 41.0684 37.7501 41.1534C37.75 42.7686 36.5165 44.0827 35 44.0827Z" fill="#FF5555"/>
    </g>
    <defs>
    <clipPath id="clip0">
    <rect width="70" height="70" fill="white"/>
    </clipPath>
    <clipPath id="clip1">
    <rect width="22" height="22" fill="white" transform="translate(24 23)"/>
    </clipPath>
    </defs>
  </symbol>

  <symbol id="icon-arrow-prev" width="58" height="12" viewBox="0 0 58 12" xmlns="http://www.w3.org/2000/svg">
    <path d="M0.469669 5.46967C0.176777 5.76256 0.176777 6.23744 0.469669 6.53033L5.24264 11.3033C5.53553 11.5962 6.01041 11.5962 6.3033 11.3033C6.5962 11.0104 6.5962 10.5355 6.3033 10.2426L2.06066 6L6.3033 1.75736C6.5962 1.46447 6.5962 0.989593 6.3033 0.696699C6.01041 0.403806 5.53553 0.403806 5.24264 0.696699L0.469669 5.46967ZM58 5.25L1 5.25V6.75L58 6.75V5.25Z" fill="inherit"/>
  </symbol>

  <symbol id="icon-arrow-next" width="58" height="12" viewBox="0 0 58 12" xmlns="http://www.w3.org/2000/svg">
    <path d="M57.5303 5.46967C57.8232 5.76256 57.8232 6.23744 57.5303 6.53033L52.7574 11.3033C52.4645 11.5962 51.9896 11.5962 51.6967 11.3033C51.4038 11.0104 51.4038 10.5355 51.6967 10.2426L55.9393 6L51.6967 1.75736C51.4038 1.46447 51.4038 0.989593 51.6967 0.696699C51.9896 0.403806 52.4645 0.403806 52.7574 0.696699L57.5303 5.46967ZM0 5.25L57 5.25V6.75L0 6.75L0 5.25Z" fill="inherit"/>
  </symbol>

  <symbol id="icon-arrow-down" width="7" height="4" viewBox="0 0 7 4" xmlns="http://www.w3.org/2000/svg">
    <path d="M3.5 4L6.53109 0.25H0.468911L3.5 4Z" fill="inherit"/>
  </symbol>

  <symbol id="icon-graduation-increase" width="10" height="10" viewBox="0 0 10 10" xmlns="http://www.w3.org/2000/svg">
    <rect width="3.33333" height="1" rx="0.5" fill="inherit"/>
    <rect y="3" width="5.55556" height="1" rx="0.5" fill="inherit"/>
    <rect y="6" width="7.77778" height="1" rx="0.5" fill="inherit"/>
    <rect y="9" width="10" height="1" rx="0.5" fill="inherit"/>
  </symbol>

  <symbol id="icon-graduation-reduction" width="10" height="10" viewBox="0 0 10 10" xmlns="http://www.w3.org/2000/svg">
    <rect width="3.33333" height="1" rx="0.5" transform="matrix(1 0 0 -1 0 10)" fill="inherit"/>
    <rect width="5.55556" height="1" rx="0.5" transform="matrix(1 0 0 -1 0 7)" fill="inherit"/>
    <rect width="7.77778" height="1" rx="0.5" transform="matrix(1 0 0 -1 0 4)" fill="inherit"/>
    <rect width="10" height="1" rx="0.5" transform="matrix(1 0 0 -1 0 1)" fill="inherit"/>
  </symbol>

  <symbol id="icon-support" width="38" height="38" viewBox="0 0 38 38" xmlns="http://www.w3.org/2000/svg">
    <path d="M27.1641 29.3906C26.7544 29.3906 26.4219 29.7231 26.4219 30.1328C26.4219 30.5425 26.7544 30.875 27.1641 30.875C27.5738 30.875 27.9062 30.5425 27.9062 30.1328C27.9062 29.7231 27.5738 29.3906 27.1641 29.3906Z" fill="inherit"/>
    <path d="M28.9915 26.9906L25.4639 25.815L24.1975 23.2821C25.3384 22.1209 26.1305 20.5844 26.3976 18.9818L26.5555 18.0352H27.9062C29.134 18.0352 30.1328 17.0363 30.1328 15.8086V11.1328C30.1328 4.99418 25.1386 0 19 0C12.8456 0 7.86719 4.97986 7.86719 11.1328V15.8086C7.86719 16.7761 8.48773 17.6011 9.35156 17.9075V18.7773C9.35156 20.0051 10.3504 21.0039 11.5781 21.0039H12.2299C12.5517 21.7028 12.9681 22.3502 13.4749 22.9317C13.58 23.0525 13.6896 23.1696 13.8019 23.2835L12.5361 25.815L9.00845 26.9907C4.90675 28.3584 1.92969 32.6764 1.92969 37.2578C1.92969 37.6677 2.26196 38 2.67188 38H35.3281C35.738 38 36.0703 37.6677 36.0703 37.2578C36.0703 32.6764 33.0933 28.3584 28.9915 26.9906ZM28.6484 15.8086C28.6484 16.2178 28.3155 16.5508 27.9062 16.5508H26.7735C26.9622 15.0894 27.0879 13.5343 27.1385 12.0027C27.1399 11.9595 27.1411 11.9175 27.1425 11.875H28.6484V15.8086ZM10.0938 16.5508C9.68451 16.5508 9.35156 16.2178 9.35156 15.8086V11.875H10.8581C10.8605 11.9524 10.8631 12.0302 10.866 12.1085C10.8661 12.1112 10.8662 12.1138 10.8663 12.1164C10.8663 12.1167 10.8663 12.1169 10.8663 12.1171C10.9182 13.6068 11.0423 15.1216 11.2267 16.5507H10.0938V16.5508ZM11.5781 19.5195C11.1689 19.5195 10.8359 19.1866 10.8359 18.7773V18.0352H11.4444L11.6023 18.9821C11.6325 19.1621 11.6695 19.3414 11.7123 19.5195H11.5781ZM10.8372 10.3906H9.37977C9.75568 5.41641 13.9069 1.48438 19 1.48438C24.0705 1.48438 28.2399 5.41589 28.6202 10.3906H27.1629C27.1094 6.29175 23.7716 2.96875 19.6643 2.96875H18.3358C14.2286 2.96875 10.8906 6.29175 10.8372 10.3906ZM18.3357 4.45312H19.6643C22.9899 4.45312 25.6816 7.17332 25.6797 10.4953C25.6797 10.7288 25.6778 10.9322 25.6739 11.1172C25.6739 11.1196 25.6738 11.1221 25.6738 11.1245L24.7455 10.9919C22.2235 10.6318 19.8423 9.44114 18.0404 7.63926C17.9012 7.5001 17.7125 7.42188 17.5156 7.42188C15.5224 7.42188 13.6144 8.33002 12.3531 9.86427C12.6639 6.84215 15.2188 4.45312 18.3357 4.45312ZM13.251 19.5195C12.8795 18.2836 12.4544 14.6468 12.3604 12.3164L13.3593 10.9844C14.2767 9.76162 15.704 9.00184 17.2223 8.91464C19.2201 10.8158 21.8045 12.0713 24.5356 12.4613L25.6283 12.6174C25.5552 14.1675 25.406 15.7229 25.1921 17.1535C25.1921 17.154 25.192 17.1545 25.1919 17.155C25.1239 17.6149 25.0704 17.9109 24.9335 18.7376C24.5404 21.0952 22.7813 23.2271 20.4591 23.8077C19.5034 24.0464 18.4965 24.0463 17.5413 23.8077C16.0913 23.4453 14.7617 22.442 13.9037 21.0039H15.4167C15.7231 21.8677 16.548 22.4883 17.5156 22.4883H19C20.2302 22.4883 21.2266 21.492 21.2266 20.2617C21.2266 19.034 20.2277 18.0352 19 18.0352H17.5156C16.5265 18.0352 15.7137 18.674 15.4155 19.5195H13.251ZM17.4532 25.3098C17.9623 25.417 18.4813 25.4719 19 25.4719C19.4061 25.4719 19.8122 25.4379 20.2137 25.372L18.9023 26.7589L17.4532 25.3098ZM17.8819 27.8379L15.5278 30.3273C14.8797 29.0868 14.3229 27.7958 13.8661 26.4741L14.7502 24.7061L17.8819 27.8379ZM23.124 24.4546L24.1337 26.4741C23.6762 27.798 23.1192 29.0894 22.4718 30.3285L19.9522 27.8089L23.124 24.4546ZM16.7734 20.2617C16.7734 19.852 17.1058 19.5195 17.5156 19.5195H19C19.4092 19.5195 19.7422 19.8525 19.7422 20.2617C19.7422 20.6716 19.4098 21.0039 19 21.0039H17.5156C17.1064 21.0039 16.7734 20.671 16.7734 20.2617ZM3.44375 36.5156C3.73788 32.8389 6.1848 29.497 9.47788 28.3988L12.602 27.3577C13.1744 28.9404 13.8835 30.4787 14.7145 31.94C14.7159 31.9425 14.7173 31.945 14.7187 31.9475C14.7187 31.9475 14.7188 31.9475 14.7188 31.9476C15.3259 33.0155 16.0094 34.0591 16.7503 35.0499L17.6633 36.5156H3.44375ZM19 35.854L17.9934 34.2381C17.9822 34.22 17.9701 34.2024 17.9574 34.1853C17.3564 33.3836 16.7957 32.5451 16.2851 31.687L18.9319 28.8879L21.7209 31.6769C21.2069 32.5413 20.6443 33.3832 20.0428 34.1852C20.0064 34.2336 20.058 34.1572 19 35.854ZM20.3367 36.5156L21.2496 35.05C21.9938 34.0554 22.6821 33.0034 23.2954 31.923C23.2991 31.9164 23.3026 31.9098 23.3063 31.9032C23.3068 31.9024 23.3072 31.9017 23.3077 31.9009C24.1281 30.4536 24.8298 28.9286 25.398 27.3577L28.522 28.3988C31.8152 29.497 34.2621 32.8389 34.5563 36.5156H20.3367Z" fill="inherit"/>
    <path d="M32.3252 33.5121C31.8292 32.5193 31.1027 31.6372 30.2242 30.9614C29.8993 30.7114 29.4333 30.7722 29.1834 31.0971C28.9334 31.422 28.9942 31.888 29.3191 32.1379C30.0207 32.6777 30.601 33.3823 30.9972 34.1754C31.1808 34.5428 31.6268 34.6906 31.9929 34.5077C32.3595 34.3246 32.5083 33.8788 32.3252 33.5121Z" fill="inherit"/>
  </symbol>

  <symbol id="icon-comment" width="34" height="34" viewBox="0 0 34 34" xmlns="http://www.w3.org/2000/svg">
    <path d="M28.5387 2.29102H5.42813C3.01182 2.29102 1.0459 4.25655 1.0459 6.67324V20.8164C1.0459 23.2277 3.00326 25.1901 5.41256 25.1986V31.6166L14.636 25.1986H28.5387C30.955 25.1986 32.9209 23.2327 32.9209 20.8164V6.67324C32.9209 4.25655 30.955 2.29102 28.5387 2.29102ZM31.0532 20.8164C31.0532 22.2028 29.9252 23.331 28.5387 23.331H14.05L7.28024 28.0418V23.331H5.42813C4.04157 23.331 2.91357 22.2028 2.91357 20.8164V6.67324C2.91357 5.28649 4.04157 4.15869 5.42813 4.15869H28.5387C29.9252 4.15869 31.0532 5.28649 31.0532 6.67324V20.8164Z" fill="inherit"/>
    <path d="M9.57678 8.89038H24.3894V10.7581H9.57678V8.89038Z" fill="inherit"/>
    <path d="M9.57678 12.8748H24.3894V14.7424H9.57678V12.8748Z" fill="inherit"/>
    <path d="M9.57678 16.8591H24.3894V18.7268H9.57678V16.8591Z" fill="inherit"/>
  </symbol>


</svg>
