<svg>

  <symbol id="icon-heart" width="25" height="25" viewBox="0 0 26 25" fill="none" xmlns="http://www.w3.org/2000/svg">
    <g clip-path="url(#clip0)">
    <path d="M12.5 24.1789C12.7353 24.1789 12.96 24.0809 13.12 23.9084L23.1116 13.1394C23.1142 13.1366 23.1168 13.1339 23.1193 13.1311C24.3321 11.7882 25 10.0086 25 8.11994C25 6.23124 24.3321 4.45167 23.1193 3.10886L22.9674 2.94079C21.7329 1.57395 20.0845 0.821152 18.3259 0.821152C16.5673 0.821152 14.9189 1.57395 13.6843 2.94085L12.5 4.25213L11.3157 2.94092C10.0812 1.57402 8.43279 0.821219 6.67413 0.821219C4.91547 0.821219 3.26711 1.57402 2.03248 2.94099L1.88086 3.10865C0.667818 4.4518 -7.05719e-05 6.23137 -7.05719e-05 8.12001C-7.05719e-05 10.0086 0.667885 11.7883 1.88065 13.1311C1.88315 13.134 1.88573 13.1368 1.8883 13.1395L11.8799 23.9086C12.04 24.0808 12.2647 24.1789 12.5 24.1789ZM21.8676 11.9932L12.5 22.0896L3.13239 11.9931C1.20505 9.85478 1.20627 6.37921 3.13611 4.24253L3.28761 4.07486C4.19759 3.06731 5.40027 2.51256 6.67413 2.51256C7.94807 2.51256 9.15075 3.06731 10.0605 4.07452L11.8723 6.08069C12.0326 6.25823 12.2607 6.35952 12.4999 6.35952C12.739 6.35952 12.9671 6.25823 13.1275 6.08069L14.9394 4.07466C15.8492 3.06738 17.0518 2.51262 18.3257 2.51262C19.5997 2.51262 20.8023 3.06731 21.7121 4.07459L21.8639 4.24266C23.7937 6.37935 23.795 9.85492 21.8676 11.9932Z" fill="#777777"/>
    </g>
    <defs>
    <clipPath id="clip0">
    <rect width="25" height="25" fill="white" transform="matrix(-1 0 0 1 25 0)"/>
    </clipPath>
    </defs>
  </symbol>

  <symbol id="icon-search" width="23" height="22" viewBox="0 0 23 22" fill="none" xmlns="http://www.w3.org/2000/svg">
    <path fill-rule="evenodd" clip-rule="evenodd" d="M14.8033 4.36827C17.7322 7.2972 17.7322 12.0459 14.8033 14.9749C11.8743 17.9038 7.1256 17.9038 4.19667 14.9749C1.26774 12.0459 1.26774 7.2972 4.19667 4.36827C7.1256 1.43934 11.8743 1.43934 14.8033 4.36827ZM17.1949 15.2452C19.8924 11.5306 19.5666 6.30313 16.2175 2.95405C12.5075 -0.755926 6.49244 -0.755926 2.78246 2.95405C-0.927525 6.66404 -0.927525 12.6791 2.78246 16.3891C6.37384 19.9805 12.1253 20.0953 15.8548 16.7335L20.8137 21.6924C21.2042 22.0829 21.8374 22.0829 22.2279 21.6924C22.6184 21.3019 22.6184 20.6687 22.2279 20.2782L17.1949 15.2452Z" fill="#777777"/>
  </symbol>

  <symbol id="icon-shopping-cart" width="23" height="23" viewBox="0 0 23 23" fill="none" xmlns="http://www.w3.org/2000/svg">
    <g clip-path="url(#clip0)">
    <path d="M22.055 4.79789H4.07182L3.80451 1.81992C3.76079 1.33293 3.35264 0.959778 2.86372 0.959778H0.944571C0.422898 0.959778 0 1.38268 0 1.90435C0 2.42602 0.422898 2.84892 0.944571 2.84892H2.00015C2.57702 9.2757 1.08612 -7.33513 3.08654 14.9524C3.16364 15.8248 3.63498 16.7714 4.44695 17.4146C2.983 19.2841 4.3206 22.0402 6.70196 22.0402C8.67845 22.0402 10.0725 20.069 9.39471 18.2019H14.5645C13.8875 20.0666 15.2786 22.0402 17.2572 22.0402C18.8363 22.0402 20.1209 20.7556 20.1209 19.1765C20.1209 17.5975 18.8363 16.3128 17.2572 16.3128H6.70835C5.99083 16.3128 5.36557 15.8799 5.09569 15.2492L20.1912 14.362C20.6033 14.3378 20.952 14.0487 21.0522 13.6482L22.9714 5.97154C23.1202 5.37628 22.6696 4.79789 22.055 4.79789ZM6.70196 20.1511C6.16463 20.1511 5.72743 19.7139 5.72743 19.1765C5.72743 18.6391 6.16463 18.2019 6.70196 18.2019C7.23933 18.2019 7.67653 18.6391 7.67653 19.1765C7.67653 19.7139 7.23933 20.1511 6.70196 20.1511ZM17.2572 20.1511C16.7198 20.1511 16.2826 19.7139 16.2826 19.1765C16.2826 18.6391 16.7198 18.2019 17.2572 18.2019C17.7946 18.2019 18.2318 18.6391 18.2318 19.1765C18.2318 19.7139 17.7946 20.1511 17.2572 20.1511ZM19.3877 12.5169L4.84142 13.3717L4.2414 6.68699H20.8453L19.3877 12.5169Z" fill="#777777"/>
    </g>
    <defs>
    <clipPath id="clip0">
    <rect width="23" height="23" fill="white"/>
    </clipPath>
    </defs>
  </symbol>

  <symbol id="icon-star" width="20" height="20" viewBox="0 0 20 20" xmlns="http://www.w3.org/2000/svg">
    <path d="M7.26236 6.81677L9.74029 0.952929L12.2182 6.81775L12.3356 7.0955L12.636 7.12131L18.9798 7.66629L18.98 7.66631L18.98 7.66623L18.9806 7.66604L18.9804 7.66625L14.1684 11.8352L13.9405 12.0327L14.0088 12.3264L15.4506 18.5278L9.99901 15.24L9.74079 15.0843L9.48258 15.24L4.03105 18.5277L4.03095 18.5278L5.4728 12.3264L5.54109 12.0327L5.3132 11.8353L0.500202 7.66525L0.499957 7.66504L0.500585 7.66526L0.50059 7.66531L0.500718 7.6653L6.84459 7.12031L7.145 7.09451L7.26236 6.81677Z" fill="inherit" stroke="#555555"/>
  </symbol>

  <symbol id="icon-vk" width="23" height="23" viewBox="0 0 23 23" fill="none" xmlns="http://www.w3.org/2000/svg">
    <g clip-path="url(#clip0)">
    <path d="M22.8781 16.7905C22.8502 16.7305 22.8243 16.6807 22.8001 16.6408C22.4011 15.9221 21.6385 15.04 20.5129 13.9941L20.4891 13.9702L20.4772 13.9584L20.4652 13.9464H20.4531C19.9422 13.4594 19.6187 13.1319 19.4832 12.9643C19.2353 12.6449 19.1798 12.3217 19.3153 11.9941C19.411 11.7467 19.7705 11.2241 20.3931 10.4256C20.7205 10.0024 20.9798 9.66327 21.1714 9.40775C22.5526 7.57147 23.1514 6.39806 22.9677 5.88706L22.8964 5.76765C22.8484 5.69576 22.7247 5.62999 22.5253 5.57001C22.3255 5.51016 22.0701 5.50026 21.7587 5.54015L18.3099 5.56397C18.2541 5.54418 18.1743 5.54602 18.0704 5.57001C17.9665 5.59401 17.9146 5.60604 17.9146 5.60604L17.8546 5.63603L17.8069 5.67206C17.767 5.69589 17.7231 5.73779 17.6752 5.79768C17.6275 5.85737 17.5876 5.92741 17.5557 6.00723C17.1802 6.97323 16.7533 7.87136 16.2742 8.70159C15.9788 9.19665 15.7075 9.62569 15.4598 9.98896C15.2123 10.3521 15.0047 10.6197 14.8372 10.7912C14.6695 10.9628 14.518 11.1004 14.3821 11.2043C14.2463 11.3082 14.1426 11.3521 14.0709 11.3361C13.9989 11.32 13.9312 11.3041 13.8671 11.2881C13.7554 11.2162 13.6655 11.1185 13.5978 10.9947C13.5298 10.871 13.484 10.7153 13.46 10.5276C13.4362 10.3399 13.4221 10.1784 13.4181 10.0426C13.4143 9.90704 13.4161 9.71524 13.4242 9.46777C13.4325 9.22018 13.4362 9.05266 13.4362 8.96483C13.4362 8.66141 13.4421 8.33211 13.454 7.97685C13.4661 7.62159 13.4758 7.34011 13.484 7.13274C13.4921 6.92516 13.4959 6.70555 13.4959 6.47402C13.4959 6.24249 13.4818 6.06092 13.454 5.92913C13.4265 5.79751 13.3842 5.66976 13.3286 5.5459C13.2726 5.42216 13.1906 5.32645 13.0831 5.2585C12.9753 5.19064 12.8414 5.13678 12.6819 5.09677C12.2588 5.00101 11.7199 4.94921 11.0651 4.94116C9.58029 4.92522 8.62621 5.0211 8.20308 5.22868C8.03543 5.31638 7.88372 5.43621 7.74808 5.5878C7.60434 5.7635 7.58429 5.85938 7.68806 5.87515C8.16714 5.94692 8.50629 6.11859 8.7059 6.39001L8.77783 6.53383C8.83378 6.6376 8.88965 6.82131 8.94556 7.08472C9.00139 7.34812 9.03742 7.6395 9.05327 7.95869C9.09312 8.54158 9.09312 9.04054 9.05327 9.45561C9.0133 9.87085 8.97555 10.1941 8.93952 10.4256C8.90349 10.6572 8.84964 10.8448 8.77783 10.9884C8.7059 11.1321 8.65804 11.22 8.63405 11.2518C8.6101 11.2837 8.59014 11.3038 8.57428 11.3117C8.47051 11.3514 8.36259 11.3717 8.2509 11.3717C8.13903 11.3717 8.00339 11.3158 7.84375 11.2039C7.68416 11.0921 7.51852 10.9385 7.34685 10.7429C7.17517 10.5472 6.98156 10.2738 6.76593 9.92256C6.55047 9.57133 6.32691 9.15622 6.09538 8.67722L5.90383 8.32985C5.78408 8.10637 5.6205 7.78098 5.41292 7.35395C5.20522 6.92676 5.02163 6.51353 4.86204 6.11436C4.79824 5.94671 4.7024 5.81907 4.57468 5.73124L4.51475 5.69522C4.4749 5.66334 4.41094 5.62949 4.32319 5.59342C4.23532 5.55739 4.14363 5.53155 4.04775 5.51566L0.766558 5.53948C0.431262 5.53948 0.203761 5.61544 0.0839707 5.76715L0.0360294 5.83891C0.0120797 5.87888 0 5.94272 0 6.03059C0 6.11842 0.0239497 6.22622 0.071891 6.35385C0.550885 7.47961 1.07178 8.56532 1.63458 9.61113C2.19737 10.6569 2.68643 11.4994 3.10146 12.1377C3.51658 12.7764 3.9397 13.3793 4.37084 13.9459C4.80197 14.5128 5.08736 14.8761 5.22699 15.0357C5.36678 15.1956 5.47659 15.3151 5.55641 15.3949L5.85584 15.6823C6.04744 15.8739 6.3288 16.1034 6.70004 16.3708C7.07136 16.6384 7.48245 16.9018 7.93351 17.1614C8.38465 17.4207 8.90949 17.6323 9.50832 17.7959C10.1071 17.9597 10.6898 18.0254 11.2567 17.9937H12.6339C12.9132 17.9696 13.1248 17.8817 13.2686 17.7302L13.3162 17.6701C13.3483 17.6225 13.3783 17.5485 13.406 17.4488C13.434 17.3491 13.4479 17.2391 13.4479 17.1195C13.4397 16.7763 13.4658 16.467 13.5256 16.1916C13.5853 15.9163 13.6533 15.7087 13.7294 15.5689C13.8054 15.4292 13.8912 15.3114 13.9867 15.2158C14.0825 15.1201 14.1507 15.0621 14.1907 15.0421C14.2304 15.022 14.2622 15.0084 14.2861 15.0002C14.4777 14.9363 14.7032 14.9982 14.9629 15.186C15.2224 15.3736 15.4658 15.6052 15.6935 15.8805C15.921 16.1561 16.1944 16.4653 16.5137 16.8085C16.8332 17.1518 17.1125 17.4071 17.3519 17.575L17.5914 17.7187C17.7512 17.8145 17.9588 17.9024 18.2143 17.9822C18.4694 18.062 18.6929 18.0819 18.8848 18.042L21.9503 17.9942C22.2535 17.9942 22.4894 17.944 22.6568 17.8444C22.8245 17.7446 22.9241 17.6347 22.9562 17.5151C22.9883 17.3954 22.99 17.2596 22.9623 17.1078C22.9339 16.9563 22.9059 16.8504 22.8781 16.7905Z" fill="#999999"/>
    </g>
    <defs>
    <clipPath id="clip0">
    <rect width="23" height="23" fill="white"/>
    </clipPath>
    </defs>
  </symbol>

  <symbol id="icon-youtube" width="20" height="24" viewBox="0 0 20 24" fill="none" xmlns="http://www.w3.org/2000/svg">
    <path d="M16.2122 17.0259H14.95L14.9558 16.2839C14.9558 15.9541 15.2234 15.6844 15.5503 15.6844H15.6308C15.9584 15.6844 16.2267 15.9541 16.2267 16.2839L16.2122 17.0259ZM11.4777 15.4359C11.1575 15.4359 10.8956 15.6536 10.8956 15.9203V19.5289C10.8956 19.795 11.1575 20.0122 11.4777 20.0122C11.7992 20.0122 12.0614 19.795 12.0614 19.5289V15.9203C12.0614 15.6534 11.7992 15.4359 11.4777 15.4359ZM19.1666 13.4173V20.2822C19.1666 21.9289 17.7557 23.2764 16.031 23.2764H3.13592C1.41066 23.2764 0 21.9289 0 20.2822V13.4173C0 11.7706 1.41066 10.4229 3.13592 10.4229H16.031C17.7557 10.4229 19.1666 11.7706 19.1666 13.4173ZM3.99611 21.0276L3.99509 13.7962L5.59359 13.7967V12.7252L1.33246 12.7187V13.7721L2.66263 13.776V21.0276H3.99611ZM8.78777 14.8733H7.45505V18.7349C7.45505 19.2935 7.48853 19.5728 7.45301 19.6714C7.34465 19.9709 6.85756 20.289 6.66769 19.7037C6.63549 19.6013 6.66385 19.2922 6.66334 18.7615L6.65797 14.8733H5.33267L5.33675 18.7005C5.33778 19.2871 5.32372 19.7244 5.34135 19.9235C5.37381 20.2745 5.36231 20.6836 5.68405 20.9174C6.28359 21.3545 7.43282 20.8523 7.72032 20.2274L7.71776 21.0248L8.78803 21.0261L8.78777 14.8733ZM13.0512 19.2953L13.0484 16.0814C13.0474 14.8565 12.1419 14.1231 10.913 15.1141L10.9183 12.7247L9.58715 12.7267L9.58076 20.9743L10.6756 20.9583L10.7752 20.4447C12.1739 21.7432 13.0532 20.8533 13.0512 19.2953ZM17.2221 18.8694L16.2229 18.8748C16.2224 18.9149 16.2208 18.9612 16.2203 19.0116V19.5759C16.2203 19.878 15.9737 20.124 15.6742 20.124H15.4785C15.1784 20.124 14.9318 19.878 14.9318 19.5759V19.5134V18.8927V18.0917H17.2201V17.2201C17.2201 16.5831 17.204 15.9464 17.1518 15.5822C16.988 14.4303 15.3903 14.2475 14.5832 14.8371C14.33 15.0213 14.1365 15.2677 14.0241 15.5988C13.9106 15.9301 13.8541 16.3827 13.8541 16.9576V18.874C13.8547 22.0598 17.6783 21.6095 17.2221 18.8694ZM12.0962 8.46536C12.1649 8.6345 12.2718 8.77157 12.4167 8.87502C12.5598 8.97692 12.7427 9.02813 12.962 9.02813C13.1542 9.02813 13.3244 8.97563 13.4726 8.86726C13.6203 8.75941 13.7448 8.59829 13.8465 8.38337L13.8212 8.91252H15.3067V2.51902H14.1373V7.49499C14.1373 7.76448 13.918 7.98509 13.65 7.98509C13.3834 7.98509 13.1634 7.76448 13.1634 7.49499V2.51902H11.9429V6.83136C11.9429 7.38068 11.9528 7.74689 11.9689 7.93259C11.9855 8.11699 12.0274 8.29389 12.0962 8.46536ZM7.59433 4.85442C7.59433 4.2407 7.64493 3.76146 7.74536 3.41594C7.84656 3.0717 8.02826 2.79497 8.29148 2.58626C8.55394 2.37652 8.88999 2.27151 9.29862 2.27151C9.64235 2.27151 9.93675 2.33979 10.1826 2.4735C10.4297 2.60799 10.6204 2.78256 10.7525 2.998C10.8872 3.21421 10.9786 3.43637 11.0275 3.6637C11.0773 3.89414 11.1018 4.24173 11.1018 4.71062V6.32755C11.1018 6.92058 11.0783 7.35688 11.0326 7.63387C10.9873 7.91164 10.8902 8.16923 10.7397 8.41079C10.5915 8.64976 10.4001 8.82847 10.168 8.94252C9.93342 9.05761 9.66509 9.11399 9.362 9.11399C9.02339 9.11399 8.73819 9.06666 8.50308 8.96787C8.2672 8.86959 8.08499 8.7214 7.95517 8.52458C7.82407 8.32751 7.73182 8.0875 7.67611 7.80767C7.62014 7.52809 7.59356 7.10757 7.59356 6.54713L7.59433 4.85442ZM8.75787 7.39413C8.75787 7.7562 9.02416 8.05181 9.34846 8.05181C9.67301 8.05181 9.93828 7.7562 9.93828 7.39413V3.9906C9.93828 3.62904 9.67301 3.33343 9.34846 3.33343C9.02416 3.33343 8.75787 3.62904 8.75787 3.9906V7.39413ZM4.6465 9.1127H6.04797L6.0495 4.20914L7.70549 0.00853467H6.17268L5.29229 3.1286L4.39938 0H2.8824L4.6442 4.21147L4.6465 9.1127Z" fill="#999999"/>
  </symbol>

  <symbol id="icon-facebook" width="11" height="20" viewBox="0 0 11 20" fill="none" xmlns="http://www.w3.org/2000/svg">
    <path d="M9.88551 0.00400102L7.42165 0C4.65358 0 2.86473 1.85747 2.86473 4.7324V6.91436H0.387419C0.173351 6.91436 0 7.09 0 7.30666V10.4681C0 10.6847 0.173548 10.8602 0.387419 10.8602H2.86473V18.8374C2.86473 19.054 3.03808 19.2295 3.25215 19.2295H6.48433C6.6984 19.2295 6.87175 19.0538 6.87175 18.8374V10.8602H9.7683C9.98237 10.8602 10.1557 10.6847 10.1557 10.4681L10.1569 7.30666C10.1569 7.20263 10.116 7.10301 10.0434 7.02939C9.9709 6.95577 9.87207 6.91436 9.76929 6.91436H6.87175V5.06469C6.87175 4.17566 7.08107 3.72435 8.22534 3.72435L9.88512 3.72375C10.099 3.72375 10.2723 3.5481 10.2723 3.33165V0.396101C10.2723 0.179846 10.0992 0.00440112 9.88551 0.00400102Z" fill="#999999"/>
  </symbol>


</svg>
